ISO-10303-21;
HEADER;
/*Generated by software containing ST-Developer
 * from STEP Tools, Inc. (www.steptools.com) 
 */
/*OPTION: using custom renumber hook */
/*description */
/*implementation_level */
FILE_DESCRIPTION(('STEP AP242 Edition 2','STEP AP242 Edition 2''CAx-IF Rec.Pracs.---Representation and Presentation of Product Manufa
cturing Information (PMI)---4.0---2014-10-13','STEP AP242 Edition 2''CAx-IF Rec.Pracs.---Representation and Presentation of Product Manufa
cturing Information (PMI)---4.0---2014-10-13''CAx-IF Rec.Pracs.---3D Tessellated Geometry---0.4---2014-09-14','STEP AP242 Edition 2''CAx-IF Rec.Pracs.---Representation and Presentation of Product Manufa
cturing Information (PMI)---4.0---2014-10-13''CAx-IF Rec.Pracs.---3D Tessellated Geometry---0.4---2014-09-14''2;1','STEP AP242 Edition 2''CAx-IF Rec.Pracs.---Representation and Presentation of Product Manufa
cturing Information (PMI)---4.0---2014-10-13''CAx-IF Rec.Pracs.---3D Tessellated Geometry---0.4---2014-09-14''2;1''CAx-IF Rec.Pracs.---User Defined Attributes---1.5---2016-08-15'),'2;1');
/*name */
/*time_stamp */
/*author */
/*organization */
/*preprocessor_version */
/*originating_system */
/*authorisation */
FILE_NAME('/vol/tmp/translate-13604461246260005888/Part Studio 1.step','2026-02-27T04:43:21',(''),(''),'ST-DEVELOPER v20','ONSHAPE BY PTC INC, 1.211','  ');
FILE_SCHEMA(('AP242_MANAGED_MODEL_BASED_3D_ENGINEERING_MIM_LF { 1 0 10303 442 3 1 4 }'));
ENDSEC;
DATA;
#10=LINE('',#1262,#42);
#11=LINE('',#1266,#43);
#12=LINE('',#1271,#44);
#13=LINE('',#1275,#45);
#14=LINE('',#1284,#46);
#15=LINE('',#1288,#47);
#16=LINE('',#1290,#48);
#17=LINE('',#1297,#49);
#18=LINE('',#1301,#50);
#19=LINE('',#1302,#51);
#20=LINE('',#1304,#52);
#21=LINE('',#1306,#53);
#22=LINE('',#1307,#54);
#23=LINE('',#1308,#55);
#24=LINE('',#1310,#56);
#25=LINE('',#1312,#57);
#26=LINE('',#1344,#58);
#27=LINE('',#1345,#59);
#28=LINE('',#1347,#60);
#29=LINE('',#1349,#61);
#30=LINE('',#1350,#62);
#31=LINE('',#1351,#63);
#32=LINE('',#1353,#64);
#33=LINE('',#1355,#65);
#34=LINE('',#1359,#66);
#35=LINE('',#1360,#67);
#36=LINE('',#1361,#68);
#37=LINE('',#1362,#69);
#38=LINE('',#1366,#70);
#39=LINE('',#1367,#71);
#40=LINE('',#1368,#72);
#41=LINE('',#1369,#73);
#42=VECTOR('',#1005,1.);
#43=VECTOR('',#1008,1.);
#44=VECTOR('',#1013,1.);
#45=VECTOR('',#1016,1.);
#46=VECTOR('',#1025,1.);
#47=VECTOR('',#1028,1.);
#48=VECTOR('',#1031,1.);
#49=VECTOR('',#1036,1.);
#50=VECTOR('',#1041,1.);
#51=VECTOR('',#1042,1.);
#52=VECTOR('',#1043,1.);
#53=VECTOR('',#1044,1.);
#54=VECTOR('',#1045,1.);
#55=VECTOR('',#1046,1.);
#56=VECTOR('',#1047,1.);
#57=VECTOR('',#1048,1.);
#58=VECTOR('',#1087,1.);
#59=VECTOR('',#1088,1.);
#60=VECTOR('',#1089,1.);
#61=VECTOR('',#1090,1.);
#62=VECTOR('',#1091,1.);
#63=VECTOR('',#1092,1.);
#64=VECTOR('',#1093,1.);
#65=VECTOR('',#1094,1.);
#66=VECTOR('',#1101,1.);
#67=VECTOR('',#1102,1.);
#68=VECTOR('',#1103,1.);
#69=VECTOR('',#1104,1.);
#70=VECTOR('',#1111,1.);
#71=VECTOR('',#1112,1.);
#72=VECTOR('',#1113,1.);
#73=VECTOR('',#1114,1.);
#74=SHAPE_REPRESENTATION_RELATIONSHIP('','',#845,#81);
#75=SHAPE_REPRESENTATION_RELATIONSHIP('','',#846,#82);
#76=SHAPE_REPRESENTATION_RELATIONSHIP('','',#847,#83);
#77=SHAPE_REPRESENTATION_RELATIONSHIP('','',#848,#84);
#78=SHAPE_REPRESENTATION_RELATIONSHIP('','',#849,#85);
#79=SHAPE_REPRESENTATION_RELATIONSHIP('','',#850,#86);
#80=SHAPE_REPRESENTATION_RELATIONSHIP('','',#851,#87);
#81=ADVANCED_BREP_SHAPE_REPRESENTATION('',(#831),#1459);
#82=ADVANCED_BREP_SHAPE_REPRESENTATION('',(#832),#1460);
#83=ADVANCED_BREP_SHAPE_REPRESENTATION('',(#833),#1461);
#84=ADVANCED_BREP_SHAPE_REPRESENTATION('',(#834),#1462);
#85=ADVANCED_BREP_SHAPE_REPRESENTATION('',(#835),#1463);
#86=ADVANCED_BREP_SHAPE_REPRESENTATION('',(#836),#1464);
#87=ADVANCED_BREP_SHAPE_REPRESENTATION('',(#837),#1465);
#88=TOROIDAL_SURFACE('',#862,0.001,0.0003);
#89=TOROIDAL_SURFACE('',#937,0.001,0.0003);
#90=TOROIDAL_SURFACE('',#951,0.001,0.0003);
#91=TOROIDAL_SURFACE('',#965,0.001,0.0003);
#92=PLANE('',#856);
#93=PLANE('',#857);
#94=PLANE('',#865);
#95=PLANE('',#883);
#96=PLANE('',#902);
#97=PLANE('',#903);
#98=PLANE('',#904);
#99=PLANE('',#905);
#100=PLANE('',#906);
#101=PLANE('',#907);
#102=PLANE('',#908);
#103=PLANE('',#909);
#104=PLANE('',#910);
#105=PLANE('',#911);
#106=PLANE('',#912);
#107=PLANE('',#913);
#108=PLANE('',#914);
#109=PLANE('',#919);
#110=PLANE('',#920);
#111=PLANE('',#925);
#112=PLANE('',#926);
#113=PLANE('',#931);
#114=PLANE('',#932);
#115=PLANE('',#940);
#116=PLANE('',#945);
#117=PLANE('',#946);
#118=PLANE('',#954);
#119=PLANE('',#959);
#120=PLANE('',#960);
#121=PLANE('',#968);
#122=ORIENTED_EDGE('',*,*,#290,.F.);
#123=ORIENTED_EDGE('',*,*,#291,.T.);
#124=ORIENTED_EDGE('',*,*,#290,.T.);
#125=ORIENTED_EDGE('',*,*,#292,.F.);
#126=ORIENTED_EDGE('',*,*,#291,.F.);
#127=ORIENTED_EDGE('',*,*,#293,.F.);
#128=ORIENTED_EDGE('',*,*,#294,.T.);
#129=ORIENTED_EDGE('',*,*,#294,.F.);
#130=ORIENTED_EDGE('',*,*,#295,.T.);
#131=ORIENTED_EDGE('',*,*,#295,.F.);
#132=ORIENTED_EDGE('',*,*,#292,.T.);
#133=ORIENTED_EDGE('',*,*,#293,.T.);
#134=ORIENTED_EDGE('',*,*,#296,.F.);
#135=ORIENTED_EDGE('',*,*,#297,.F.);
#136=ORIENTED_EDGE('',*,*,#298,.T.);
#137=ORIENTED_EDGE('',*,*,#299,.T.);
#138=ORIENTED_EDGE('',*,*,#300,.F.);
#139=ORIENTED_EDGE('',*,*,#301,.F.);
#140=ORIENTED_EDGE('',*,*,#302,.T.);
#141=ORIENTED_EDGE('',*,*,#303,.T.);
#142=ORIENTED_EDGE('',*,*,#304,.F.);
#143=ORIENTED_EDGE('',*,*,#305,.F.);
#144=ORIENTED_EDGE('',*,*,#306,.T.);
#145=ORIENTED_EDGE('',*,*,#307,.T.);
#146=ORIENTED_EDGE('',*,*,#308,.F.);
#147=ORIENTED_EDGE('',*,*,#309,.F.);
#148=ORIENTED_EDGE('',*,*,#310,.T.);
#149=ORIENTED_EDGE('',*,*,#311,.T.);
#150=ORIENTED_EDGE('',*,*,#312,.T.);
#151=ORIENTED_EDGE('',*,*,#313,.T.);
#152=ORIENTED_EDGE('',*,*,#314,.F.);
#153=ORIENTED_EDGE('',*,*,#315,.F.);
#154=ORIENTED_EDGE('',*,*,#316,.T.);
#155=ORIENTED_EDGE('',*,*,#298,.F.);
#156=ORIENTED_EDGE('',*,*,#317,.T.);
#157=ORIENTED_EDGE('',*,*,#318,.F.);
#158=ORIENTED_EDGE('',*,*,#319,.F.);
#159=ORIENTED_EDGE('',*,*,#310,.F.);
#160=ORIENTED_EDGE('',*,*,#320,.F.);
#161=ORIENTED_EDGE('',*,*,#314,.T.);
#162=ORIENTED_EDGE('',*,*,#321,.F.);
#163=ORIENTED_EDGE('',*,*,#322,.T.);
#164=ORIENTED_EDGE('',*,*,#323,.T.);
#165=ORIENTED_EDGE('',*,*,#304,.T.);
#166=ORIENTED_EDGE('',*,*,#324,.T.);
#167=ORIENTED_EDGE('',*,*,#325,.F.);
#168=ORIENTED_EDGE('',*,*,#326,.T.);
#169=ORIENTED_EDGE('',*,*,#327,.F.);
#170=ORIENTED_EDGE('',*,*,#328,.T.);
#171=ORIENTED_EDGE('',*,*,#329,.F.);
#172=ORIENTED_EDGE('',*,*,#330,.T.);
#173=ORIENTED_EDGE('',*,*,#331,.F.);
#174=ORIENTED_EDGE('',*,*,#332,.T.);
#175=ORIENTED_EDGE('',*,*,#333,.F.);
#176=ORIENTED_EDGE('',*,*,#334,.T.);
#177=ORIENTED_EDGE('',*,*,#335,.F.);
#178=ORIENTED_EDGE('',*,*,#336,.F.);
#179=ORIENTED_EDGE('',*,*,#302,.F.);
#180=ORIENTED_EDGE('',*,*,#337,.F.);
#181=ORIENTED_EDGE('',*,*,#338,.F.);
#182=ORIENTED_EDGE('',*,*,#339,.T.);
#183=ORIENTED_EDGE('',*,*,#311,.F.);
#184=ORIENTED_EDGE('',*,*,#340,.T.);
#185=ORIENTED_EDGE('',*,*,#308,.T.);
#186=ORIENTED_EDGE('',*,*,#341,.T.);
#187=ORIENTED_EDGE('',*,*,#342,.T.);
#188=ORIENTED_EDGE('',*,*,#343,.F.);
#189=ORIENTED_EDGE('',*,*,#300,.T.);
#190=ORIENTED_EDGE('',*,*,#334,.F.);
#191=ORIENTED_EDGE('',*,*,#332,.F.);
#192=ORIENTED_EDGE('',*,*,#330,.F.);
#193=ORIENTED_EDGE('',*,*,#328,.F.);
#194=ORIENTED_EDGE('',*,*,#326,.F.);
#195=ORIENTED_EDGE('',*,*,#324,.F.);
#196=ORIENTED_EDGE('',*,*,#315,.T.);
#197=ORIENTED_EDGE('',*,*,#320,.T.);
#198=ORIENTED_EDGE('',*,*,#309,.T.);
#199=ORIENTED_EDGE('',*,*,#340,.F.);
#200=ORIENTED_EDGE('',*,*,#335,.T.);
#201=ORIENTED_EDGE('',*,*,#333,.T.);
#202=ORIENTED_EDGE('',*,*,#331,.T.);
#203=ORIENTED_EDGE('',*,*,#329,.T.);
#204=ORIENTED_EDGE('',*,*,#327,.T.);
#205=ORIENTED_EDGE('',*,*,#325,.T.);
#206=ORIENTED_EDGE('',*,*,#303,.F.);
#207=ORIENTED_EDGE('',*,*,#336,.T.);
#208=ORIENTED_EDGE('',*,*,#299,.F.);
#209=ORIENTED_EDGE('',*,*,#316,.F.);
#210=ORIENTED_EDGE('',*,*,#344,.F.);
#211=ORIENTED_EDGE('',*,*,#322,.F.);
#212=ORIENTED_EDGE('',*,*,#345,.T.);
#213=ORIENTED_EDGE('',*,*,#346,.T.);
#214=ORIENTED_EDGE('',*,*,#338,.T.);
#215=ORIENTED_EDGE('',*,*,#347,.F.);
#216=ORIENTED_EDGE('',*,*,#345,.F.);
#217=ORIENTED_EDGE('',*,*,#321,.T.);
#218=ORIENTED_EDGE('',*,*,#313,.F.);
#219=ORIENTED_EDGE('',*,*,#344,.T.);
#220=ORIENTED_EDGE('',*,*,#305,.T.);
#221=ORIENTED_EDGE('',*,*,#323,.F.);
#222=ORIENTED_EDGE('',*,*,#348,.T.);
#223=ORIENTED_EDGE('',*,*,#349,.T.);
#224=ORIENTED_EDGE('',*,*,#342,.F.);
#225=ORIENTED_EDGE('',*,*,#350,.F.);
#226=ORIENTED_EDGE('',*,*,#351,.F.);
#227=ORIENTED_EDGE('',*,*,#318,.T.);
#228=ORIENTED_EDGE('',*,*,#306,.F.);
#229=ORIENTED_EDGE('',*,*,#319,.T.);
#230=ORIENTED_EDGE('',*,*,#351,.T.);
#231=ORIENTED_EDGE('',*,*,#297,.T.);
#232=ORIENTED_EDGE('',*,*,#348,.F.);
#233=ORIENTED_EDGE('',*,*,#317,.F.);
#234=ORIENTED_EDGE('',*,*,#346,.F.);
#235=ORIENTED_EDGE('',*,*,#312,.F.);
#236=ORIENTED_EDGE('',*,*,#339,.F.);
#237=ORIENTED_EDGE('',*,*,#347,.T.);
#238=ORIENTED_EDGE('',*,*,#337,.T.);
#239=ORIENTED_EDGE('',*,*,#301,.T.);
#240=ORIENTED_EDGE('',*,*,#341,.F.);
#241=ORIENTED_EDGE('',*,*,#307,.F.);
#242=ORIENTED_EDGE('',*,*,#350,.T.);
#243=ORIENTED_EDGE('',*,*,#343,.T.);
#244=ORIENTED_EDGE('',*,*,#349,.F.);
#245=ORIENTED_EDGE('',*,*,#296,.T.);
#246=ORIENTED_EDGE('',*,*,#352,.F.);
#247=ORIENTED_EDGE('',*,*,#353,.T.);
#248=ORIENTED_EDGE('',*,*,#352,.T.);
#249=ORIENTED_EDGE('',*,*,#353,.F.);
#250=ORIENTED_EDGE('',*,*,#354,.F.);
#251=ORIENTED_EDGE('',*,*,#355,.T.);
#252=ORIENTED_EDGE('',*,*,#354,.T.);
#253=ORIENTED_EDGE('',*,*,#355,.F.);
#254=ORIENTED_EDGE('',*,*,#356,.F.);
#255=ORIENTED_EDGE('',*,*,#357,.T.);
#256=ORIENTED_EDGE('',*,*,#356,.T.);
#257=ORIENTED_EDGE('',*,*,#358,.F.);
#258=ORIENTED_EDGE('',*,*,#357,.F.);
#259=ORIENTED_EDGE('',*,*,#359,.F.);
#260=ORIENTED_EDGE('',*,*,#360,.T.);
#261=ORIENTED_EDGE('',*,*,#360,.F.);
#262=ORIENTED_EDGE('',*,*,#361,.T.);
#263=ORIENTED_EDGE('',*,*,#361,.F.);
#264=ORIENTED_EDGE('',*,*,#358,.T.);
#265=ORIENTED_EDGE('',*,*,#359,.T.);
#266=ORIENTED_EDGE('',*,*,#362,.F.);
#267=ORIENTED_EDGE('',*,*,#363,.T.);
#268=ORIENTED_EDGE('',*,*,#362,.T.);
#269=ORIENTED_EDGE('',*,*,#364,.F.);
#270=ORIENTED_EDGE('',*,*,#363,.F.);
#271=ORIENTED_EDGE('',*,*,#365,.F.);
#272=ORIENTED_EDGE('',*,*,#366,.T.);
#273=ORIENTED_EDGE('',*,*,#366,.F.);
#274=ORIENTED_EDGE('',*,*,#367,.T.);
#275=ORIENTED_EDGE('',*,*,#367,.F.);
#276=ORIENTED_EDGE('',*,*,#364,.T.);
#277=ORIENTED_EDGE('',*,*,#365,.T.);
#278=ORIENTED_EDGE('',*,*,#368,.F.);
#279=ORIENTED_EDGE('',*,*,#369,.T.);
#280=ORIENTED_EDGE('',*,*,#368,.T.);
#281=ORIENTED_EDGE('',*,*,#370,.F.);
#282=ORIENTED_EDGE('',*,*,#369,.F.);
#283=ORIENTED_EDGE('',*,*,#371,.F.);
#284=ORIENTED_EDGE('',*,*,#372,.T.);
#285=ORIENTED_EDGE('',*,*,#372,.F.);
#286=ORIENTED_EDGE('',*,*,#373,.T.);
#287=ORIENTED_EDGE('',*,*,#373,.F.);
#288=ORIENTED_EDGE('',*,*,#370,.T.);
#289=ORIENTED_EDGE('',*,*,#371,.T.);
#290=EDGE_CURVE('',#374,#374,#442,.T.);
#291=EDGE_CURVE('',#375,#375,#443,.T.);
#292=EDGE_CURVE('',#376,#376,#444,.F.);
#293=EDGE_CURVE('',#377,#377,#445,.F.);
#294=EDGE_CURVE('',#378,#378,#446,.F.);
#295=EDGE_CURVE('',#379,#379,#447,.F.);
#296=EDGE_CURVE('',#380,#381,#448,.T.);
#297=EDGE_CURVE('',#382,#380,#449,.T.);
#298=EDGE_CURVE('',#382,#383,#10,.T.);
#299=EDGE_CURVE('',#383,#384,#450,.T.);
#300=EDGE_CURVE('',#381,#384,#11,.T.);
#301=EDGE_CURVE('',#385,#386,#451,.T.);
#302=EDGE_CURVE('',#385,#387,#12,.T.);
#303=EDGE_CURVE('',#387,#388,#452,.T.);
#304=EDGE_CURVE('',#389,#388,#13,.T.);
#305=EDGE_CURVE('',#386,#389,#453,.T.);
#306=EDGE_CURVE('',#390,#391,#454,.T.);
#307=EDGE_CURVE('',#391,#392,#455,.T.);
#308=EDGE_CURVE('',#393,#392,#14,.T.);
#309=EDGE_CURVE('',#394,#393,#456,.T.);
#310=EDGE_CURVE('',#394,#390,#15,.T.);
#311=EDGE_CURVE('',#395,#396,#16,.T.);
#312=EDGE_CURVE('',#396,#397,#457,.T.);
#313=EDGE_CURVE('',#397,#398,#458,.T.);
#314=EDGE_CURVE('',#399,#398,#17,.T.);
#315=EDGE_CURVE('',#395,#399,#459,.T.);
#316=EDGE_CURVE('',#388,#383,#18,.T.);
#317=EDGE_CURVE('',#382,#400,#19,.T.);
#318=EDGE_CURVE('',#401,#400,#20,.T.);
#319=EDGE_CURVE('',#390,#401,#21,.T.);
#320=EDGE_CURVE('',#399,#394,#22,.T.);
#321=EDGE_CURVE('',#402,#398,#23,.T.);
#322=EDGE_CURVE('',#402,#403,#24,.T.);
#323=EDGE_CURVE('',#403,#389,#25,.T.);
#324=EDGE_CURVE('',#404,#404,#460,.T.);
#325=EDGE_CURVE('',#405,#405,#461,.T.);
#326=EDGE_CURVE('',#406,#406,#462,.T.);
#327=EDGE_CURVE('',#407,#407,#463,.T.);
#328=EDGE_CURVE('',#408,#408,#464,.T.);
#329=EDGE_CURVE('',#409,#409,#465,.T.);
#330=EDGE_CURVE('',#410,#410,#466,.T.);
#331=EDGE_CURVE('',#411,#411,#467,.T.);
#332=EDGE_CURVE('',#412,#412,#468,.T.);
#333=EDGE_CURVE('',#413,#413,#469,.T.);
#334=EDGE_CURVE('',#414,#414,#470,.T.);
#335=EDGE_CURVE('',#415,#415,#471,.T.);
#336=EDGE_CURVE('',#387,#384,#26,.T.);
#337=EDGE_CURVE('',#416,#385,#27,.T.);
#338=EDGE_CURVE('',#417,#416,#28,.T.);
#339=EDGE_CURVE('',#417,#396,#29,.T.);
#340=EDGE_CURVE('',#395,#393,#30,.T.);
#341=EDGE_CURVE('',#392,#418,#31,.T.);
#342=EDGE_CURVE('',#418,#419,#32,.T.);
#343=EDGE_CURVE('',#381,#419,#33,.T.);
#344=EDGE_CURVE('',#403,#386,#34,.T.);
#345=EDGE_CURVE('',#402,#397,#35,.T.);
#346=EDGE_CURVE('',#397,#417,#36,.T.);
#347=EDGE_CURVE('',#386,#416,#37,.T.);
#348=EDGE_CURVE('',#400,#380,#38,.T.);
#349=EDGE_CURVE('',#380,#419,#39,.T.);
#350=EDGE_CURVE('',#391,#418,#40,.T.);
#351=EDGE_CURVE('',#401,#391,#41,.T.);
#352=EDGE_CURVE('',#420,#420,#472,.T.);
#353=EDGE_CURVE('',#421,#421,#473,.T.);
#354=EDGE_CURVE('',#422,#422,#474,.T.);
#355=EDGE_CURVE('',#423,#423,#475,.T.);
#356=EDGE_CURVE('',#424,#424,#476,.T.);
#357=EDGE_CURVE('',#425,#425,#477,.T.);
#358=EDGE_CURVE('',#426,#426,#478,.F.);
#359=EDGE_CURVE('',#427,#427,#479,.F.);
#360=EDGE_CURVE('',#428,#428,#480,.F.);
#361=EDGE_CURVE('',#429,#429,#481,.F.);
#362=EDGE_CURVE('',#430,#430,#482,.T.);
#363=EDGE_CURVE('',#431,#431,#483,.T.);
#364=EDGE_CURVE('',#432,#432,#484,.F.);
#365=EDGE_CURVE('',#433,#433,#485,.F.);
#366=EDGE_CURVE('',#434,#434,#486,.F.);
#367=EDGE_CURVE('',#435,#435,#487,.F.);
#368=EDGE_CURVE('',#436,#436,#488,.T.);
#369=EDGE_CURVE('',#437,#437,#489,.T.);
#370=EDGE_CURVE('',#438,#438,#490,.F.);
#371=EDGE_CURVE('',#439,#439,#491,.F.);
#372=EDGE_CURVE('',#440,#440,#492,.F.);
#373=EDGE_CURVE('',#441,#441,#493,.F.);
#374=VERTEX_POINT('',#1238);
#375=VERTEX_POINT('',#1240);
#376=VERTEX_POINT('',#1244);
#377=VERTEX_POINT('',#1247);
#378=VERTEX_POINT('',#1249);
#379=VERTEX_POINT('',#1252);
#380=VERTEX_POINT('',#1258);
#381=VERTEX_POINT('',#1259);
#382=VERTEX_POINT('',#1261);
#383=VERTEX_POINT('',#1263);
#384=VERTEX_POINT('',#1265);
#385=VERTEX_POINT('',#1269);
#386=VERTEX_POINT('',#1270);
#387=VERTEX_POINT('',#1272);
#388=VERTEX_POINT('',#1274);
#389=VERTEX_POINT('',#1276);
#390=VERTEX_POINT('',#1280);
#391=VERTEX_POINT('',#1281);
#392=VERTEX_POINT('',#1283);
#393=VERTEX_POINT('',#1285);
#394=VERTEX_POINT('',#1287);
#395=VERTEX_POINT('',#1291);
#396=VERTEX_POINT('',#1292);
#397=VERTEX_POINT('',#1294);
#398=VERTEX_POINT('',#1296);
#399=VERTEX_POINT('',#1298);
#400=VERTEX_POINT('',#1303);
#401=VERTEX_POINT('',#1305);
#402=VERTEX_POINT('',#1309);
#403=VERTEX_POINT('',#1311);
#404=VERTEX_POINT('',#1315);
#405=VERTEX_POINT('',#1317);
#406=VERTEX_POINT('',#1320);
#407=VERTEX_POINT('',#1322);
#408=VERTEX_POINT('',#1325);
#409=VERTEX_POINT('',#1327);
#410=VERTEX_POINT('',#1330);
#411=VERTEX_POINT('',#1332);
#412=VERTEX_POINT('',#1335);
#413=VERTEX_POINT('',#1337);
#414=VERTEX_POINT('',#1340);
#415=VERTEX_POINT('',#1342);
#416=VERTEX_POINT('',#1346);
#417=VERTEX_POINT('',#1348);
#418=VERTEX_POINT('',#1352);
#419=VERTEX_POINT('',#1354);
#420=VERTEX_POINT('',#1379);
#421=VERTEX_POINT('',#1381);
#422=VERTEX_POINT('',#1387);
#423=VERTEX_POINT('',#1389);
#424=VERTEX_POINT('',#1395);
#425=VERTEX_POINT('',#1397);
#426=VERTEX_POINT('',#1401);
#427=VERTEX_POINT('',#1404);
#428=VERTEX_POINT('',#1406);
#429=VERTEX_POINT('',#1409);
#430=VERTEX_POINT('',#1415);
#431=VERTEX_POINT('',#1417);
#432=VERTEX_POINT('',#1421);
#433=VERTEX_POINT('',#1424);
#434=VERTEX_POINT('',#1426);
#435=VERTEX_POINT('',#1429);
#436=VERTEX_POINT('',#1435);
#437=VERTEX_POINT('',#1437);
#438=VERTEX_POINT('',#1441);
#439=VERTEX_POINT('',#1444);
#440=VERTEX_POINT('',#1446);
#441=VERTEX_POINT('',#1449);
#442=CIRCLE('',#854,0.00075);
#443=CIRCLE('',#855,0.00075);
#444=CIRCLE('',#858,0.0003);
#445=CIRCLE('',#860,0.0003);
#446=CIRCLE('',#861,0.0003);
#447=CIRCLE('',#863,0.0003);
#448=CIRCLE('',#868,0.002);
#449=CIRCLE('',#869,0.002);
#450=CIRCLE('',#870,0.002);
#451=CIRCLE('',#872,0.002);
#452=CIRCLE('',#873,0.002);
#453=CIRCLE('',#874,0.002);
#454=CIRCLE('',#876,0.002);
#455=CIRCLE('',#877,0.002);
#456=CIRCLE('',#878,0.002);
#457=CIRCLE('',#880,0.002);
#458=CIRCLE('',#881,0.002);
#459=CIRCLE('',#882,0.002);
#460=CIRCLE('',#885,0.0014);
#461=CIRCLE('',#886,0.0014);
#462=CIRCLE('',#888,0.0014);
#463=CIRCLE('',#889,0.0014);
#464=CIRCLE('',#891,0.00075);
#465=CIRCLE('',#892,0.00075);
#466=CIRCLE('',#894,0.00075);
#467=CIRCLE('',#895,0.00075);
#468=CIRCLE('',#897,0.00075);
#469=CIRCLE('',#898,0.00075);
#470=CIRCLE('',#900,0.00075);
#471=CIRCLE('',#901,0.00075);
#472=CIRCLE('',#917,0.0014);
#473=CIRCLE('',#918,0.0014);
#474=CIRCLE('',#923,0.0014);
#475=CIRCLE('',#924,0.0014);
#476=CIRCLE('',#929,0.00075);
#477=CIRCLE('',#930,0.00075);
#478=CIRCLE('',#933,0.0003);
#479=CIRCLE('',#935,0.0003);
#480=CIRCLE('',#936,0.0003);
#481=CIRCLE('',#938,0.0003);
#482=CIRCLE('',#943,0.00075);
#483=CIRCLE('',#944,0.00075);
#484=CIRCLE('',#947,0.0003);
#485=CIRCLE('',#949,0.0003);
#486=CIRCLE('',#950,0.0003);
#487=CIRCLE('',#952,0.0003);
#488=CIRCLE('',#957,0.00075);
#489=CIRCLE('',#958,0.00075);
#490=CIRCLE('',#961,0.0003);
#491=CIRCLE('',#963,0.0003);
#492=CIRCLE('',#964,0.0003);
#493=CIRCLE('',#966,0.0003);
#494=EDGE_LOOP('',(#122));
#495=EDGE_LOOP('',(#123));
#496=EDGE_LOOP('',(#124));
#497=EDGE_LOOP('',(#125));
#498=EDGE_LOOP('',(#126));
#499=EDGE_LOOP('',(#127));
#500=EDGE_LOOP('',(#128));
#501=EDGE_LOOP('',(#129));
#502=EDGE_LOOP('',(#130));
#503=EDGE_LOOP('',(#131));
#504=EDGE_LOOP('',(#132));
#505=EDGE_LOOP('',(#133));
#506=EDGE_LOOP('',(#134,#135,#136,#137,#138));
#507=EDGE_LOOP('',(#139,#140,#141,#142,#143));
#508=EDGE_LOOP('',(#144,#145,#146,#147,#148));
#509=EDGE_LOOP('',(#149,#150,#151,#152,#153));
#510=EDGE_LOOP('',(#154,#155,#156,#157,#158,#159,#160,#161,#162,#163,#164,#165));
#511=EDGE_LOOP('',(#166));
#512=EDGE_LOOP('',(#167));
#513=EDGE_LOOP('',(#168));
#514=EDGE_LOOP('',(#169));
#515=EDGE_LOOP('',(#170));
#516=EDGE_LOOP('',(#171));
#517=EDGE_LOOP('',(#172));
#518=EDGE_LOOP('',(#173));
#519=EDGE_LOOP('',(#174));
#520=EDGE_LOOP('',(#175));
#521=EDGE_LOOP('',(#176));
#522=EDGE_LOOP('',(#177));
#523=EDGE_LOOP('',(#178,#179,#180,#181,#182,#183,#184,#185,#186,#187,#188,#189));
#524=EDGE_LOOP('',(#190));
#525=EDGE_LOOP('',(#191));
#526=EDGE_LOOP('',(#192));
#527=EDGE_LOOP('',(#193));
#528=EDGE_LOOP('',(#194));
#529=EDGE_LOOP('',(#195));
#530=EDGE_LOOP('',(#196,#197,#198,#199));
#531=EDGE_LOOP('',(#200));
#532=EDGE_LOOP('',(#201));
#533=EDGE_LOOP('',(#202));
#534=EDGE_LOOP('',(#203));
#535=EDGE_LOOP('',(#204));
#536=EDGE_LOOP('',(#205));
#537=EDGE_LOOP('',(#206,#207,#208,#209));
#538=EDGE_LOOP('',(#210,#211,#212,#213,#214,#215));
#539=EDGE_LOOP('',(#216,#217,#218));
#540=EDGE_LOOP('',(#219,#220,#221));
#541=EDGE_LOOP('',(#222,#223,#224,#225,#226,#227));
#542=EDGE_LOOP('',(#228,#229,#230));
#543=EDGE_LOOP('',(#231,#232,#233));
#544=EDGE_LOOP('',(#234,#235,#236));
#545=EDGE_LOOP('',(#237,#238,#239));
#546=EDGE_LOOP('',(#240,#241,#242));
#547=EDGE_LOOP('',(#243,#244,#245));
#548=EDGE_LOOP('',(#246));
#549=EDGE_LOOP('',(#247));
#550=EDGE_LOOP('',(#248));
#551=EDGE_LOOP('',(#249));
#552=EDGE_LOOP('',(#250));
#553=EDGE_LOOP('',(#251));
#554=EDGE_LOOP('',(#252));
#555=EDGE_LOOP('',(#253));
#556=EDGE_LOOP('',(#254));
#557=EDGE_LOOP('',(#255));
#558=EDGE_LOOP('',(#256));
#559=EDGE_LOOP('',(#257));
#560=EDGE_LOOP('',(#258));
#561=EDGE_LOOP('',(#259));
#562=EDGE_LOOP('',(#260));
#563=EDGE_LOOP('',(#261));
#564=EDGE_LOOP('',(#262));
#565=EDGE_LOOP('',(#263));
#566=EDGE_LOOP('',(#264));
#567=EDGE_LOOP('',(#265));
#568=EDGE_LOOP('',(#266));
#569=EDGE_LOOP('',(#267));
#570=EDGE_LOOP('',(#268));
#571=EDGE_LOOP('',(#269));
#572=EDGE_LOOP('',(#270));
#573=EDGE_LOOP('',(#271));
#574=EDGE_LOOP('',(#272));
#575=EDGE_LOOP('',(#273));
#576=EDGE_LOOP('',(#274));
#577=EDGE_LOOP('',(#275));
#578=EDGE_LOOP('',(#276));
#579=EDGE_LOOP('',(#277));
#580=EDGE_LOOP('',(#278));
#581=EDGE_LOOP('',(#279));
#582=EDGE_LOOP('',(#280));
#583=EDGE_LOOP('',(#281));
#584=EDGE_LOOP('',(#282));
#585=EDGE_LOOP('',(#283));
#586=EDGE_LOOP('',(#284));
#587=EDGE_LOOP('',(#285));
#588=EDGE_LOOP('',(#286));
#589=EDGE_LOOP('',(#287));
#590=EDGE_LOOP('',(#288));
#591=EDGE_LOOP('',(#289));
#592=FACE_BOUND('',#494,.T.);
#593=FACE_BOUND('',#495,.T.);
#594=FACE_BOUND('',#496,.T.);
#595=FACE_BOUND('',#497,.T.);
#596=FACE_BOUND('',#498,.T.);
#597=FACE_BOUND('',#499,.T.);
#598=FACE_BOUND('',#500,.T.);
#599=FACE_BOUND('',#501,.T.);
#600=FACE_BOUND('',#502,.T.);
#601=FACE_BOUND('',#503,.T.);
#602=FACE_BOUND('',#504,.T.);
#603=FACE_BOUND('',#505,.T.);
#604=FACE_BOUND('',#506,.T.);
#605=FACE_BOUND('',#507,.T.);
#606=FACE_BOUND('',#508,.T.);
#607=FACE_BOUND('',#509,.T.);
#608=FACE_BOUND('',#510,.T.);
#609=FACE_BOUND('',#511,.T.);
#610=FACE_BOUND('',#512,.T.);
#611=FACE_BOUND('',#513,.T.);
#612=FACE_BOUND('',#514,.T.);
#613=FACE_BOUND('',#515,.T.);
#614=FACE_BOUND('',#516,.T.);
#615=FACE_BOUND('',#517,.T.);
#616=FACE_BOUND('',#518,.T.);
#617=FACE_BOUND('',#519,.T.);
#618=FACE_BOUND('',#520,.T.);
#619=FACE_BOUND('',#521,.T.);
#620=FACE_BOUND('',#522,.T.);
#621=FACE_BOUND('',#523,.T.);
#622=FACE_BOUND('',#524,.T.);
#623=FACE_BOUND('',#525,.T.);
#624=FACE_BOUND('',#526,.T.);
#625=FACE_BOUND('',#527,.T.);
#626=FACE_BOUND('',#528,.T.);
#627=FACE_BOUND('',#529,.T.);
#628=FACE_BOUND('',#530,.T.);
#629=FACE_BOUND('',#531,.T.);
#630=FACE_BOUND('',#532,.T.);
#631=FACE_BOUND('',#533,.T.);
#632=FACE_BOUND('',#534,.T.);
#633=FACE_BOUND('',#535,.T.);
#634=FACE_BOUND('',#536,.T.);
#635=FACE_BOUND('',#537,.T.);
#636=FACE_BOUND('',#538,.T.);
#637=FACE_BOUND('',#539,.T.);
#638=FACE_BOUND('',#540,.T.);
#639=FACE_BOUND('',#541,.T.);
#640=FACE_BOUND('',#542,.T.);
#641=FACE_BOUND('',#543,.T.);
#642=FACE_BOUND('',#544,.T.);
#643=FACE_BOUND('',#545,.T.);
#644=FACE_BOUND('',#546,.T.);
#645=FACE_BOUND('',#547,.T.);
#646=FACE_BOUND('',#548,.T.);
#647=FACE_BOUND('',#549,.T.);
#648=FACE_BOUND('',#550,.T.);
#649=FACE_BOUND('',#551,.T.);
#650=FACE_BOUND('',#552,.T.);
#651=FACE_BOUND('',#553,.T.);
#652=FACE_BOUND('',#554,.T.);
#653=FACE_BOUND('',#555,.T.);
#654=FACE_BOUND('',#556,.T.);
#655=FACE_BOUND('',#557,.T.);
#656=FACE_BOUND('',#558,.T.);
#657=FACE_BOUND('',#559,.T.);
#658=FACE_BOUND('',#560,.T.);
#659=FACE_BOUND('',#561,.T.);
#660=FACE_BOUND('',#562,.T.);
#661=FACE_BOUND('',#563,.T.);
#662=FACE_BOUND('',#564,.T.);
#663=FACE_BOUND('',#565,.T.);
#664=FACE_BOUND('',#566,.T.);
#665=FACE_BOUND('',#567,.T.);
#666=FACE_BOUND('',#568,.T.);
#667=FACE_BOUND('',#569,.T.);
#668=FACE_BOUND('',#570,.T.);
#669=FACE_BOUND('',#571,.T.);
#670=FACE_BOUND('',#572,.T.);
#671=FACE_BOUND('',#573,.T.);
#672=FACE_BOUND('',#574,.T.);
#673=FACE_BOUND('',#575,.T.);
#674=FACE_BOUND('',#576,.T.);
#675=FACE_BOUND('',#577,.T.);
#676=FACE_BOUND('',#578,.T.);
#677=FACE_BOUND('',#579,.T.);
#678=FACE_BOUND('',#580,.T.);
#679=FACE_BOUND('',#581,.T.);
#680=FACE_BOUND('',#582,.T.);
#681=FACE_BOUND('',#583,.T.);
#682=FACE_BOUND('',#584,.T.);
#683=FACE_BOUND('',#585,.T.);
#684=FACE_BOUND('',#586,.T.);
#685=FACE_BOUND('',#587,.T.);
#686=FACE_BOUND('',#588,.T.);
#687=FACE_BOUND('',#589,.T.);
#688=FACE_BOUND('',#590,.T.);
#689=FACE_BOUND('',#591,.T.);
#690=CYLINDRICAL_SURFACE('',#853,0.00075);
#691=CYLINDRICAL_SURFACE('',#859,0.0003);
#692=CYLINDRICAL_SURFACE('',#864,0.0003);
#693=CYLINDRICAL_SURFACE('',#867,0.002);
#694=CYLINDRICAL_SURFACE('',#871,0.002);
#695=CYLINDRICAL_SURFACE('',#875,0.002);
#696=CYLINDRICAL_SURFACE('',#879,0.002);
#697=CYLINDRICAL_SURFACE('',#884,0.0014);
#698=CYLINDRICAL_SURFACE('',#887,0.0014);
#699=CYLINDRICAL_SURFACE('',#890,0.00075);
#700=CYLINDRICAL_SURFACE('',#893,0.00075);
#701=CYLINDRICAL_SURFACE('',#896,0.00075);
#702=CYLINDRICAL_SURFACE('',#899,0.00075);
#703=CYLINDRICAL_SURFACE('',#916,0.0014);
#704=CYLINDRICAL_SURFACE('',#922,0.0014);
#705=CYLINDRICAL_SURFACE('',#928,0.00075);
#706=CYLINDRICAL_SURFACE('',#934,0.0003);
#707=CYLINDRICAL_SURFACE('',#939,0.0003);
#708=CYLINDRICAL_SURFACE('',#942,0.00075);
#709=CYLINDRICAL_SURFACE('',#948,0.0003);
#710=CYLINDRICAL_SURFACE('',#953,0.0003);
#711=CYLINDRICAL_SURFACE('',#956,0.00075);
#712=CYLINDRICAL_SURFACE('',#962,0.0003);
#713=CYLINDRICAL_SURFACE('',#967,0.0003);
#714=ADVANCED_FACE('',(#592,#593),#690,.T.);
#715=ADVANCED_FACE('',(#594),#92,.T.);
#716=ADVANCED_FACE('',(#595,#596),#93,.F.);
#717=ADVANCED_FACE('',(#597,#598),#691,.T.);
#718=ADVANCED_FACE('',(#599,#600),#88,.T.);
#719=ADVANCED_FACE('',(#601,#602),#692,.T.);
#720=ADVANCED_FACE('',(#603),#94,.F.);
#721=ADVANCED_FACE('',(#604),#693,.T.);
#722=ADVANCED_FACE('',(#605),#694,.T.);
#723=ADVANCED_FACE('',(#606),#695,.T.);
#724=ADVANCED_FACE('',(#607),#696,.T.);
#725=ADVANCED_FACE('',(#608),#95,.F.);
#726=ADVANCED_FACE('',(#609,#610),#697,.F.);
#727=ADVANCED_FACE('',(#611,#612),#698,.F.);
#728=ADVANCED_FACE('',(#613,#614),#699,.F.);
#729=ADVANCED_FACE('',(#615,#616),#700,.F.);
#730=ADVANCED_FACE('',(#617,#618),#701,.F.);
#731=ADVANCED_FACE('',(#619,#620),#702,.F.);
#732=ADVANCED_FACE('',(#621),#96,.T.);
#733=ADVANCED_FACE('',(#622,#623,#624,#625,#626,#627,#628),#97,.T.);
#734=ADVANCED_FACE('',(#629,#630,#631,#632,#633,#634,#635),#98,.F.);
#735=ADVANCED_FACE('',(#636),#99,.T.);
#736=ADVANCED_FACE('',(#637),#100,.T.);
#737=ADVANCED_FACE('',(#638),#101,.F.);
#738=ADVANCED_FACE('',(#639),#102,.F.);
#739=ADVANCED_FACE('',(#640),#103,.T.);
#740=ADVANCED_FACE('',(#641),#104,.F.);
#741=ADVANCED_FACE('',(#642),#105,.T.);
#742=ADVANCED_FACE('',(#643),#106,.F.);
#743=ADVANCED_FACE('',(#644),#107,.T.);
#744=ADVANCED_FACE('',(#645),#108,.F.);
#745=ADVANCED_FACE('',(#646,#647),#703,.T.);
#746=ADVANCED_FACE('',(#648),#109,.T.);
#747=ADVANCED_FACE('',(#649),#110,.F.);
#748=ADVANCED_FACE('',(#650,#651),#704,.T.);
#749=ADVANCED_FACE('',(#652),#111,.T.);
#750=ADVANCED_FACE('',(#653),#112,.F.);
#751=ADVANCED_FACE('',(#654,#655),#705,.T.);
#752=ADVANCED_FACE('',(#656),#113,.T.);
#753=ADVANCED_FACE('',(#657,#658),#114,.F.);
#754=ADVANCED_FACE('',(#659,#660),#706,.T.);
#755=ADVANCED_FACE('',(#661,#662),#89,.T.);
#756=ADVANCED_FACE('',(#663,#664),#707,.T.);
#757=ADVANCED_FACE('',(#665),#115,.F.);
#758=ADVANCED_FACE('',(#666,#667),#708,.T.);
#759=ADVANCED_FACE('',(#668),#116,.T.);
#760=ADVANCED_FACE('',(#669,#670),#117,.F.);
#761=ADVANCED_FACE('',(#671,#672),#709,.T.);
#762=ADVANCED_FACE('',(#673,#674),#90,.T.);
#763=ADVANCED_FACE('',(#675,#676),#710,.T.);
#764=ADVANCED_FACE('',(#677),#118,.F.);
#765=ADVANCED_FACE('',(#678,#679),#711,.T.);
#766=ADVANCED_FACE('',(#680),#119,.T.);
#767=ADVANCED_FACE('',(#681,#682),#120,.F.);
#768=ADVANCED_FACE('',(#683,#684),#712,.T.);
#769=ADVANCED_FACE('',(#685,#686),#91,.T.);
#770=ADVANCED_FACE('',(#687,#688),#713,.T.);
#771=ADVANCED_FACE('',(#689),#121,.F.);
#772=CLOSED_SHELL('',(#714,#715,#716,#717,#718,#719,#720));
#773=CLOSED_SHELL('',(#721,#722,#723,#724,#725,#726,#727,#728,#729,#730,#731,#732,#733,#734,#735,#736,#737,#738,#739,#740,#741,#742,#743,#744));
#774=CLOSED_SHELL('',(#745,#746,#747));
#775=CLOSED_SHELL('',(#748,#749,#750));
#776=CLOSED_SHELL('',(#751,#752,#753,#754,#755,#756,#757));
#777=CLOSED_SHELL('',(#758,#759,#760,#761,#762,#763,#764));
#778=CLOSED_SHELL('',(#765,#766,#767,#768,#769,#770,#771));
#779=STYLED_ITEM('',(#786),#831);
#780=STYLED_ITEM('',(#787),#832);
#781=STYLED_ITEM('',(#788),#833);
#782=STYLED_ITEM('',(#789),#834);
#783=STYLED_ITEM('',(#790),#835);
#784=STYLED_ITEM('',(#791),#836);
#785=STYLED_ITEM('',(#792),#837);
#786=PRESENTATION_STYLE_ASSIGNMENT((#793));
#787=PRESENTATION_STYLE_ASSIGNMENT((#794));
#788=PRESENTATION_STYLE_ASSIGNMENT((#795));
#789=PRESENTATION_STYLE_ASSIGNMENT((#796));
#790=PRESENTATION_STYLE_ASSIGNMENT((#797));
#791=PRESENTATION_STYLE_ASSIGNMENT((#798));
#792=PRESENTATION_STYLE_ASSIGNMENT((#799));
#793=SURFACE_STYLE_USAGE(.BOTH.,#800);
#794=SURFACE_STYLE_USAGE(.BOTH.,#801);
#795=SURFACE_STYLE_USAGE(.BOTH.,#802);
#796=SURFACE_STYLE_USAGE(.BOTH.,#803);
#797=SURFACE_STYLE_USAGE(.BOTH.,#804);
#798=SURFACE_STYLE_USAGE(.BOTH.,#805);
#799=SURFACE_STYLE_USAGE(.BOTH.,#806);
#800=SURFACE_SIDE_STYLE('',(#807));
#801=SURFACE_SIDE_STYLE('',(#808));
#802=SURFACE_SIDE_STYLE('',(#809));
#803=SURFACE_SIDE_STYLE('',(#810));
#804=SURFACE_SIDE_STYLE('',(#811));
#805=SURFACE_SIDE_STYLE('',(#812));
#806=SURFACE_SIDE_STYLE('',(#813));
#807=SURFACE_STYLE_FILL_AREA(#814);
#808=SURFACE_STYLE_FILL_AREA(#815);
#809=SURFACE_STYLE_FILL_AREA(#816);
#810=SURFACE_STYLE_FILL_AREA(#817);
#811=SURFACE_STYLE_FILL_AREA(#818);
#812=SURFACE_STYLE_FILL_AREA(#819);
#813=SURFACE_STYLE_FILL_AREA(#820);
#814=FILL_AREA_STYLE('',(#821));
#815=FILL_AREA_STYLE('',(#822));
#816=FILL_AREA_STYLE('',(#823));
#817=FILL_AREA_STYLE('',(#824));
#818=FILL_AREA_STYLE('',(#825));
#819=FILL_AREA_STYLE('',(#826));
#820=FILL_AREA_STYLE('',(#827));
#821=FILL_AREA_STYLE_COLOUR('',#828);
#822=FILL_AREA_STYLE_COLOUR('',#829);
#823=FILL_AREA_STYLE_COLOUR('',#830);
#824=FILL_AREA_STYLE_COLOUR('',#830);
#825=FILL_AREA_STYLE_COLOUR('',#828);
#826=FILL_AREA_STYLE_COLOUR('',#828);
#827=FILL_AREA_STYLE_COLOUR('',#828);
#828=COLOUR_RGB('',0.980392156862745,0.713725490196078,0.00392156862745098);
#829=COLOUR_RGB('',0.235294117647059,0.231372549019608,0.231372549019608);
#830=COLOUR_RGB('',0.917647058823529,0.917647058823529,0.917647058823529);
#831=MANIFOLD_SOLID_BREP('Part 7',#772);
#832=MANIFOLD_SOLID_BREP('Part 1',#773);
#833=MANIFOLD_SOLID_BREP('Part 2',#774);
#834=MANIFOLD_SOLID_BREP('Part 3',#775);
#835=MANIFOLD_SOLID_BREP('Part 4',#776);
#836=MANIFOLD_SOLID_BREP('Part 5',#777);
#837=MANIFOLD_SOLID_BREP('Part 6',#778);
#838=SHAPE_DEFINITION_REPRESENTATION(#1494,#845);
#839=SHAPE_DEFINITION_REPRESENTATION(#1495,#846);
#840=SHAPE_DEFINITION_REPRESENTATION(#1496,#847);
#841=SHAPE_DEFINITION_REPRESENTATION(#1497,#848);
#842=SHAPE_DEFINITION_REPRESENTATION(#1498,#849);
#843=SHAPE_DEFINITION_REPRESENTATION(#1499,#850);
#844=SHAPE_DEFINITION_REPRESENTATION(#1500,#851);
#845=SHAPE_REPRESENTATION('Part 7',(#852),#1459);
#846=SHAPE_REPRESENTATION('Part 1',(#866),#1460);
#847=SHAPE_REPRESENTATION('Part 2',(#915),#1461);
#848=SHAPE_REPRESENTATION('Part 3',(#921),#1462);
#849=SHAPE_REPRESENTATION('Part 4',(#927),#1463);
#850=SHAPE_REPRESENTATION('Part 5',(#941),#1464);
#851=SHAPE_REPRESENTATION('Part 6',(#955),#1465);
#852=AXIS2_PLACEMENT_3D('',#1235,#969,#970);
#853=AXIS2_PLACEMENT_3D('',#1236,#971,#972);
#854=AXIS2_PLACEMENT_3D('',#1237,#973,#974);
#855=AXIS2_PLACEMENT_3D('',#1239,#975,#976);
#856=AXIS2_PLACEMENT_3D('',#1241,#977,#978);
#857=AXIS2_PLACEMENT_3D('',#1242,#979,#980);
#858=AXIS2_PLACEMENT_3D('',#1243,#981,#982);
#859=AXIS2_PLACEMENT_3D('',#1245,#983,#984);
#860=AXIS2_PLACEMENT_3D('',#1246,#985,#986);
#861=AXIS2_PLACEMENT_3D('',#1248,#987,#988);
#862=AXIS2_PLACEMENT_3D('',#1250,#989,#990);
#863=AXIS2_PLACEMENT_3D('',#1251,#991,#992);
#864=AXIS2_PLACEMENT_3D('',#1253,#993,#994);
#865=AXIS2_PLACEMENT_3D('',#1254,#995,#996);
#866=AXIS2_PLACEMENT_3D('',#1255,#997,#998);
#867=AXIS2_PLACEMENT_3D('',#1256,#999,#1000);
#868=AXIS2_PLACEMENT_3D('',#1257,#1001,#1002);
#869=AXIS2_PLACEMENT_3D('',#1260,#1003,#1004);
#870=AXIS2_PLACEMENT_3D('',#1264,#1006,#1007);
#871=AXIS2_PLACEMENT_3D('',#1267,#1009,#1010);
#872=AXIS2_PLACEMENT_3D('',#1268,#1011,#1012);
#873=AXIS2_PLACEMENT_3D('',#1273,#1014,#1015);
#874=AXIS2_PLACEMENT_3D('',#1277,#1017,#1018);
#875=AXIS2_PLACEMENT_3D('',#1278,#1019,#1020);
#876=AXIS2_PLACEMENT_3D('',#1279,#1021,#1022);
#877=AXIS2_PLACEMENT_3D('',#1282,#1023,#1024);
#878=AXIS2_PLACEMENT_3D('',#1286,#1026,#1027);
#879=AXIS2_PLACEMENT_3D('',#1289,#1029,#1030);
#880=AXIS2_PLACEMENT_3D('',#1293,#1032,#1033);
#881=AXIS2_PLACEMENT_3D('',#1295,#1034,#1035);
#882=AXIS2_PLACEMENT_3D('',#1299,#1037,#1038);
#883=AXIS2_PLACEMENT_3D('',#1300,#1039,#1040);
#884=AXIS2_PLACEMENT_3D('',#1313,#1049,#1050);
#885=AXIS2_PLACEMENT_3D('',#1314,#1051,#1052);
#886=AXIS2_PLACEMENT_3D('',#1316,#1053,#1054);
#887=AXIS2_PLACEMENT_3D('',#1318,#1055,#1056);
#888=AXIS2_PLACEMENT_3D('',#1319,#1057,#1058);
#889=AXIS2_PLACEMENT_3D('',#1321,#1059,#1060);
#890=AXIS2_PLACEMENT_3D('',#1323,#1061,#1062);
#891=AXIS2_PLACEMENT_3D('',#1324,#1063,#1064);
#892=AXIS2_PLACEMENT_3D('',#1326,#1065,#1066);
#893=AXIS2_PLACEMENT_3D('',#1328,#1067,#1068);
#894=AXIS2_PLACEMENT_3D('',#1329,#1069,#1070);
#895=AXIS2_PLACEMENT_3D('',#1331,#1071,#1072);
#896=AXIS2_PLACEMENT_3D('',#1333,#1073,#1074);
#897=AXIS2_PLACEMENT_3D('',#1334,#1075,#1076);
#898=AXIS2_PLACEMENT_3D('',#1336,#1077,#1078);
#899=AXIS2_PLACEMENT_3D('',#1338,#1079,#1080);
#900=AXIS2_PLACEMENT_3D('',#1339,#1081,#1082);
#901=AXIS2_PLACEMENT_3D('',#1341,#1083,#1084);
#902=AXIS2_PLACEMENT_3D('',#1343,#1085,#1086);
#903=AXIS2_PLACEMENT_3D('',#1356,#1095,#1096);
#904=AXIS2_PLACEMENT_3D('',#1357,#1097,#1098);
#905=AXIS2_PLACEMENT_3D('',#1358,#1099,#1100);
#906=AXIS2_PLACEMENT_3D('',#1363,#1105,#1106);
#907=AXIS2_PLACEMENT_3D('',#1364,#1107,#1108);
#908=AXIS2_PLACEMENT_3D('',#1365,#1109,#1110);
#909=AXIS2_PLACEMENT_3D('',#1370,#1115,#1116);
#910=AXIS2_PLACEMENT_3D('',#1371,#1117,#1118);
#911=AXIS2_PLACEMENT_3D('',#1372,#1119,#1120);
#912=AXIS2_PLACEMENT_3D('',#1373,#1121,#1122);
#913=AXIS2_PLACEMENT_3D('',#1374,#1123,#1124);
#914=AXIS2_PLACEMENT_3D('',#1375,#1125,#1126);
#915=AXIS2_PLACEMENT_3D('',#1376,#1127,#1128);
#916=AXIS2_PLACEMENT_3D('',#1377,#1129,#1130);
#917=AXIS2_PLACEMENT_3D('',#1378,#1131,#1132);
#918=AXIS2_PLACEMENT_3D('',#1380,#1133,#1134);
#919=AXIS2_PLACEMENT_3D('',#1382,#1135,#1136);
#920=AXIS2_PLACEMENT_3D('',#1383,#1137,#1138);
#921=AXIS2_PLACEMENT_3D('',#1384,#1139,#1140);
#922=AXIS2_PLACEMENT_3D('',#1385,#1141,#1142);
#923=AXIS2_PLACEMENT_3D('',#1386,#1143,#1144);
#924=AXIS2_PLACEMENT_3D('',#1388,#1145,#1146);
#925=AXIS2_PLACEMENT_3D('',#1390,#1147,#1148);
#926=AXIS2_PLACEMENT_3D('',#1391,#1149,#1150);
#927=AXIS2_PLACEMENT_3D('',#1392,#1151,#1152);
#928=AXIS2_PLACEMENT_3D('',#1393,#1153,#1154);
#929=AXIS2_PLACEMENT_3D('',#1394,#1155,#1156);
#930=AXIS2_PLACEMENT_3D('',#1396,#1157,#1158);
#931=AXIS2_PLACEMENT_3D('',#1398,#1159,#1160);
#932=AXIS2_PLACEMENT_3D('',#1399,#1161,#1162);
#933=AXIS2_PLACEMENT_3D('',#1400,#1163,#1164);
#934=AXIS2_PLACEMENT_3D('',#1402,#1165,#1166);
#935=AXIS2_PLACEMENT_3D('',#1403,#1167,#1168);
#936=AXIS2_PLACEMENT_3D('',#1405,#1169,#1170);
#937=AXIS2_PLACEMENT_3D('',#1407,#1171,#1172);
#938=AXIS2_PLACEMENT_3D('',#1408,#1173,#1174);
#939=AXIS2_PLACEMENT_3D('',#1410,#1175,#1176);
#940=AXIS2_PLACEMENT_3D('',#1411,#1177,#1178);
#941=AXIS2_PLACEMENT_3D('',#1412,#1179,#1180);
#942=AXIS2_PLACEMENT_3D('',#1413,#1181,#1182);
#943=AXIS2_PLACEMENT_3D('',#1414,#1183,#1184);
#944=AXIS2_PLACEMENT_3D('',#1416,#1185,#1186);
#945=AXIS2_PLACEMENT_3D('',#1418,#1187,#1188);
#946=AXIS2_PLACEMENT_3D('',#1419,#1189,#1190);
#947=AXIS2_PLACEMENT_3D('',#1420,#1191,#1192);
#948=AXIS2_PLACEMENT_3D('',#1422,#1193,#1194);
#949=AXIS2_PLACEMENT_3D('',#1423,#1195,#1196);
#950=AXIS2_PLACEMENT_3D('',#1425,#1197,#1198);
#951=AXIS2_PLACEMENT_3D('',#1427,#1199,#1200);
#952=AXIS2_PLACEMENT_3D('',#1428,#1201,#1202);
#953=AXIS2_PLACEMENT_3D('',#1430,#1203,#1204);
#954=AXIS2_PLACEMENT_3D('',#1431,#1205,#1206);
#955=AXIS2_PLACEMENT_3D('',#1432,#1207,#1208);
#956=AXIS2_PLACEMENT_3D('',#1433,#1209,#1210);
#957=AXIS2_PLACEMENT_3D('',#1434,#1211,#1212);
#958=AXIS2_PLACEMENT_3D('',#1436,#1213,#1214);
#959=AXIS2_PLACEMENT_3D('',#1438,#1215,#1216);
#960=AXIS2_PLACEMENT_3D('',#1439,#1217,#1218);
#961=AXIS2_PLACEMENT_3D('',#1440,#1219,#1220);
#962=AXIS2_PLACEMENT_3D('',#1442,#1221,#1222);
#963=AXIS2_PLACEMENT_3D('',#1443,#1223,#1224);
#964=AXIS2_PLACEMENT_3D('',#1445,#1225,#1226);
#965=AXIS2_PLACEMENT_3D('',#1447,#1227,#1228);
#966=AXIS2_PLACEMENT_3D('',#1448,#1229,#1230);
#967=AXIS2_PLACEMENT_3D('',#1450,#1231,#1232);
#968=AXIS2_PLACEMENT_3D('',#1451,#1233,#1234);
#969=DIRECTION('',(0.,0.,1.));
#970=DIRECTION('',(1.,0.,0.));
#971=DIRECTION('',(0.,0.,-1.));
#972=DIRECTION('',(-1.,0.,0.));
#973=DIRECTION('',(0.,0.,1.));
#974=DIRECTION('',(1.,0.,0.));
#975=DIRECTION('',(0.,0.,1.));
#976=DIRECTION('',(1.,0.,0.));
#977=DIRECTION('',(0.,0.,1.));
#978=DIRECTION('',(1.,0.,0.));
#979=DIRECTION('',(0.,0.,1.));
#980=DIRECTION('',(1.,0.,0.));
#981=DIRECTION('',(0.,0.,1.));
#982=DIRECTION('',(1.,0.,0.));
#983=DIRECTION('',(0.,-1.,-1.22464679914735E-16));
#984=DIRECTION('',(0.,1.22464679914735E-16,-1.));
#985=DIRECTION('',(0.,1.,1.22464679914735E-16));
#986=DIRECTION('',(1.,0.,0.));
#987=DIRECTION('',(0.,1.,2.16840434497101E-16));
#988=DIRECTION('',(1.,0.,0.));
#989=DIRECTION('',(-1.,0.,0.));
#990=DIRECTION('',(0.,0.,1.));
#991=DIRECTION('',(0.,0.,1.));
#992=DIRECTION('',(1.,0.,0.));
#993=DIRECTION('',(0.,0.,-1.));
#994=DIRECTION('',(-1.,0.,0.));
#995=DIRECTION('',(0.,1.,1.22464679914735E-16));
#996=DIRECTION('',(1.,0.,0.));
#997=DIRECTION('',(0.,0.,1.));
#998=DIRECTION('',(1.,0.,0.));
#999=DIRECTION('',(0.,0.,-1.));
#1000=DIRECTION('',(-1.,0.,0.));
#1001=DIRECTION('',(0.,0.,1.));
#1002=DIRECTION('',(1.,0.,0.));
#1003=DIRECTION('',(0.,0.,1.));
#1004=DIRECTION('',(1.,0.,0.));
#1005=DIRECTION('',(0.,0.,-1.));
#1006=DIRECTION('',(0.,0.,1.));
#1007=DIRECTION('',(1.,0.,0.));
#1008=DIRECTION('',(0.,0.,-1.));
#1009=DIRECTION('',(0.,0.,-1.));
#1010=DIRECTION('',(-1.,0.,0.));
#1011=DIRECTION('',(0.,0.,1.));
#1012=DIRECTION('',(1.,0.,0.));
#1013=DIRECTION('',(0.,0.,-1.));
#1014=DIRECTION('',(0.,0.,1.));
#1015=DIRECTION('',(1.,0.,0.));
#1016=DIRECTION('',(0.,0.,-1.));
#1017=DIRECTION('',(0.,0.,1.));
#1018=DIRECTION('',(1.,0.,0.));
#1019=DIRECTION('',(0.,0.,-1.));
#1020=DIRECTION('',(-1.,0.,0.));
#1021=DIRECTION('',(0.,0.,1.));
#1022=DIRECTION('',(1.,0.,0.));
#1023=DIRECTION('',(0.,0.,1.));
#1024=DIRECTION('',(1.,0.,0.));
#1025=DIRECTION('',(0.,0.,-1.));
#1026=DIRECTION('',(0.,0.,1.));
#1027=DIRECTION('',(1.,0.,0.));
#1028=DIRECTION('',(0.,0.,-1.));
#1029=DIRECTION('',(0.,0.,-1.));
#1030=DIRECTION('',(-1.,0.,0.));
#1031=DIRECTION('',(0.,0.,-1.));
#1032=DIRECTION('',(0.,0.,1.));
#1033=DIRECTION('',(1.,0.,0.));
#1034=DIRECTION('',(0.,0.,1.));
#1035=DIRECTION('',(1.,0.,0.));
#1036=DIRECTION('',(0.,0.,-1.));
#1037=DIRECTION('',(0.,0.,1.));
#1038=DIRECTION('',(1.,0.,0.));
#1039=DIRECTION('',(0.,-1.,0.));
#1040=DIRECTION('',(0.,0.,-1.));
#1041=DIRECTION('',(-1.,0.,0.));
#1042=DIRECTION('',(-1.,0.,0.));
#1043=DIRECTION('',(0.,0.,-1.));
#1044=DIRECTION('',(-1.,0.,0.));
#1045=DIRECTION('',(-1.,0.,0.));
#1046=DIRECTION('',(-1.,0.,0.));
#1047=DIRECTION('',(0.,0.,-1.));
#1048=DIRECTION('',(-1.,0.,0.));
#1049=DIRECTION('',(0.,0.,-1.));
#1050=DIRECTION('',(-1.,0.,0.));
#1051=DIRECTION('',(0.,0.,1.));
#1052=DIRECTION('',(1.,0.,0.));
#1053=DIRECTION('',(0.,0.,1.));
#1054=DIRECTION('',(1.,0.,0.));
#1055=DIRECTION('',(0.,0.,-1.));
#1056=DIRECTION('',(-1.,0.,0.));
#1057=DIRECTION('',(0.,0.,1.));
#1058=DIRECTION('',(1.,0.,0.));
#1059=DIRECTION('',(0.,0.,1.));
#1060=DIRECTION('',(1.,0.,0.));
#1061=DIRECTION('',(0.,0.,-1.));
#1062=DIRECTION('',(-1.,0.,0.));
#1063=DIRECTION('',(0.,0.,1.));
#1064=DIRECTION('',(1.,0.,0.));
#1065=DIRECTION('',(0.,0.,1.));
#1066=DIRECTION('',(1.,0.,0.));
#1067=DIRECTION('',(0.,0.,-1.));
#1068=DIRECTION('',(-1.,0.,0.));
#1069=DIRECTION('',(0.,0.,1.));
#1070=DIRECTION('',(1.,0.,0.));
#1071=DIRECTION('',(0.,0.,1.));
#1072=DIRECTION('',(1.,0.,0.));
#1073=DIRECTION('',(0.,0.,-1.));
#1074=DIRECTION('',(-1.,0.,0.));
#1075=DIRECTION('',(0.,0.,1.));
#1076=DIRECTION('',(1.,0.,0.));
#1077=DIRECTION('',(0.,0.,1.));
#1078=DIRECTION('',(1.,0.,0.));
#1079=DIRECTION('',(0.,0.,-1.));
#1080=DIRECTION('',(-1.,0.,0.));
#1081=DIRECTION('',(0.,0.,1.));
#1082=DIRECTION('',(1.,0.,0.));
#1083=DIRECTION('',(0.,0.,1.));
#1084=DIRECTION('',(1.,0.,0.));
#1085=DIRECTION('',(0.,-1.,0.));
#1086=DIRECTION('',(0.,0.,-1.));
#1087=DIRECTION('',(-1.,0.,0.));
#1088=DIRECTION('',(-1.,0.,0.));
#1089=DIRECTION('',(0.,0.,-1.));
#1090=DIRECTION('',(-1.,0.,0.));
#1091=DIRECTION('',(-1.,0.,0.));
#1092=DIRECTION('',(-1.,0.,0.));
#1093=DIRECTION('',(0.,0.,-1.));
#1094=DIRECTION('',(-1.,0.,0.));
#1095=DIRECTION('',(0.,0.,1.));
#1096=DIRECTION('',(1.,0.,0.));
#1097=DIRECTION('',(0.,0.,1.));
#1098=DIRECTION('',(1.,0.,0.));
#1099=DIRECTION('',(1.,0.,0.));
#1100=DIRECTION('',(0.,0.,-1.));
#1101=DIRECTION('',(0.,-1.,0.));
#1102=DIRECTION('',(0.,-1.,0.));
#1103=DIRECTION('',(0.,-1.,0.));
#1104=DIRECTION('',(0.,-1.,0.));
#1105=DIRECTION('',(0.,0.,1.));
#1106=DIRECTION('',(1.,0.,0.));
#1107=DIRECTION('',(0.,0.,1.));
#1108=DIRECTION('',(1.,0.,0.));
#1109=DIRECTION('',(1.,0.,0.));
#1110=DIRECTION('',(0.,0.,-1.));
#1111=DIRECTION('',(0.,-1.,0.));
#1112=DIRECTION('',(0.,-1.,0.));
#1113=DIRECTION('',(0.,-1.,0.));
#1114=DIRECTION('',(0.,-1.,0.));
#1115=DIRECTION('',(0.,0.,1.));
#1116=DIRECTION('',(1.,0.,0.));
#1117=DIRECTION('',(0.,0.,1.));
#1118=DIRECTION('',(1.,0.,0.));
#1119=DIRECTION('',(0.,0.,1.));
#1120=DIRECTION('',(1.,0.,0.));
#1121=DIRECTION('',(0.,0.,1.));
#1122=DIRECTION('',(1.,0.,0.));
#1123=DIRECTION('',(0.,0.,1.));
#1124=DIRECTION('',(1.,0.,0.));
#1125=DIRECTION('',(0.,0.,1.));
#1126=DIRECTION('',(1.,0.,0.));
#1127=DIRECTION('',(0.,0.,1.));
#1128=DIRECTION('',(1.,0.,0.));
#1129=DIRECTION('',(0.,0.,-1.));
#1130=DIRECTION('',(-1.,0.,0.));
#1131=DIRECTION('',(0.,0.,1.));
#1132=DIRECTION('',(1.,0.,0.));
#1133=DIRECTION('',(0.,0.,1.));
#1134=DIRECTION('',(1.,0.,0.));
#1135=DIRECTION('',(0.,0.,1.));
#1136=DIRECTION('',(1.,0.,0.));
#1137=DIRECTION('',(0.,0.,1.));
#1138=DIRECTION('',(1.,0.,0.));
#1139=DIRECTION('',(0.,0.,1.));
#1140=DIRECTION('',(1.,0.,0.));
#1141=DIRECTION('',(0.,0.,-1.));
#1142=DIRECTION('',(-1.,0.,0.));
#1143=DIRECTION('',(0.,0.,1.));
#1144=DIRECTION('',(1.,0.,0.));
#1145=DIRECTION('',(0.,0.,1.));
#1146=DIRECTION('',(1.,0.,0.));
#1147=DIRECTION('',(0.,0.,1.));
#1148=DIRECTION('',(1.,0.,0.));
#1149=DIRECTION('',(0.,0.,1.));
#1150=DIRECTION('',(1.,0.,0.));
#1151=DIRECTION('',(0.,0.,1.));
#1152=DIRECTION('',(1.,0.,0.));
#1153=DIRECTION('',(0.,0.,-1.));
#1154=DIRECTION('',(-1.,0.,0.));
#1155=DIRECTION('',(0.,0.,1.));
#1156=DIRECTION('',(1.,0.,0.));
#1157=DIRECTION('',(0.,0.,1.));
#1158=DIRECTION('',(1.,0.,0.));
#1159=DIRECTION('',(0.,0.,1.));
#1160=DIRECTION('',(1.,0.,0.));
#1161=DIRECTION('',(0.,0.,1.));
#1162=DIRECTION('',(1.,0.,0.));
#1163=DIRECTION('',(0.,0.,1.));
#1164=DIRECTION('',(1.,0.,0.));
#1165=DIRECTION('',(0.,-1.,-1.22464679914735E-16));
#1166=DIRECTION('',(0.,1.22464679914735E-16,-1.));
#1167=DIRECTION('',(0.,1.,1.22464679914735E-16));
#1168=DIRECTION('',(1.,0.,0.));
#1169=DIRECTION('',(0.,1.,2.16840434497101E-16));
#1170=DIRECTION('',(1.,0.,0.));
#1171=DIRECTION('',(-1.,0.,0.));
#1172=DIRECTION('',(0.,0.,1.));
#1173=DIRECTION('',(0.,0.,1.));
#1174=DIRECTION('',(1.,0.,0.));
#1175=DIRECTION('',(0.,0.,-1.));
#1176=DIRECTION('',(-1.,0.,0.));
#1177=DIRECTION('',(0.,1.,1.22464679914735E-16));
#1178=DIRECTION('',(1.,0.,0.));
#1179=DIRECTION('',(0.,0.,1.));
#1180=DIRECTION('',(1.,0.,0.));
#1181=DIRECTION('',(0.,0.,-1.));
#1182=DIRECTION('',(-1.,0.,0.));
#1183=DIRECTION('',(0.,0.,1.));
#1184=DIRECTION('',(1.,0.,0.));
#1185=DIRECTION('',(0.,0.,1.));
#1186=DIRECTION('',(1.,0.,0.));
#1187=DIRECTION('',(0.,0.,1.));
#1188=DIRECTION('',(1.,0.,0.));
#1189=DIRECTION('',(0.,0.,1.));
#1190=DIRECTION('',(1.,0.,0.));
#1191=DIRECTION('',(0.,0.,1.));
#1192=DIRECTION('',(1.,0.,0.));
#1193=DIRECTION('',(0.,-1.,-1.22464679914735E-16));
#1194=DIRECTION('',(0.,1.22464679914735E-16,-1.));
#1195=DIRECTION('',(0.,1.,1.22464679914735E-16));
#1196=DIRECTION('',(1.,0.,0.));
#1197=DIRECTION('',(0.,1.,2.16840434497101E-16));
#1198=DIRECTION('',(1.,0.,0.));
#1199=DIRECTION('',(-1.,0.,0.));
#1200=DIRECTION('',(0.,0.,1.));
#1201=DIRECTION('',(0.,0.,1.));
#1202=DIRECTION('',(1.,0.,0.));
#1203=DIRECTION('',(0.,0.,-1.));
#1204=DIRECTION('',(-1.,0.,0.));
#1205=DIRECTION('',(0.,1.,1.22464679914735E-16));
#1206=DIRECTION('',(1.,0.,0.));
#1207=DIRECTION('',(0.,0.,1.));
#1208=DIRECTION('',(1.,0.,0.));
#1209=DIRECTION('',(0.,0.,-1.));
#1210=DIRECTION('',(-1.,0.,0.));
#1211=DIRECTION('',(0.,0.,1.));
#1212=DIRECTION('',(1.,0.,0.));
#1213=DIRECTION('',(0.,0.,1.));
#1214=DIRECTION('',(1.,0.,0.));
#1215=DIRECTION('',(0.,0.,1.));
#1216=DIRECTION('',(1.,0.,0.));
#1217=DIRECTION('',(0.,0.,1.));
#1218=DIRECTION('',(1.,0.,0.));
#1219=DIRECTION('',(0.,0.,1.));
#1220=DIRECTION('',(1.,0.,0.));
#1221=DIRECTION('',(0.,-1.,-1.22464679914735E-16));
#1222=DIRECTION('',(0.,1.22464679914735E-16,-1.));
#1223=DIRECTION('',(0.,1.,1.22464679914735E-16));
#1224=DIRECTION('',(1.,0.,0.));
#1225=DIRECTION('',(0.,1.,2.16840434497101E-16));
#1226=DIRECTION('',(1.,0.,0.));
#1227=DIRECTION('',(-1.,0.,0.));
#1228=DIRECTION('',(0.,0.,1.));
#1229=DIRECTION('',(0.,0.,1.));
#1230=DIRECTION('',(1.,0.,0.));
#1231=DIRECTION('',(0.,0.,-1.));
#1232=DIRECTION('',(-1.,0.,0.));
#1233=DIRECTION('',(0.,1.,1.22464679914735E-16));
#1234=DIRECTION('',(1.,0.,0.));
#1235=CARTESIAN_POINT('',(0.,0.,0.));
#1236=CARTESIAN_POINT('',(0.00385,4.59242549680257E-20,0.004));
#1237=CARTESIAN_POINT('',(0.00385,4.59242549680257E-20,0.004));
#1238=CARTESIAN_POINT('',(0.0046,4.59242549680257E-20,0.004));
#1239=CARTESIAN_POINT('',(0.00385,4.59242549680257E-20,0.));
#1240=CARTESIAN_POINT('',(0.0046,4.59242549680257E-20,0.));
#1241=CARTESIAN_POINT('',(0.,0.,0.004));
#1242=CARTESIAN_POINT('',(0.,0.,0.));
#1243=CARTESIAN_POINT('',(0.00385,1.83697019872103E-20,0.));
#1244=CARTESIAN_POINT('',(0.00415,1.83697019872103E-20,0.));
#1245=CARTESIAN_POINT('',(0.00385,-0.001,-0.0017));
#1246=CARTESIAN_POINT('',(0.00385,-0.00483303983765978,-0.0017));
#1247=CARTESIAN_POINT('',(0.00415,-0.00483303983765978,-0.0017));
#1248=CARTESIAN_POINT('',(0.00385,-0.001,-0.0017));
#1249=CARTESIAN_POINT('',(0.00415,-0.001,-0.0017));
#1250=CARTESIAN_POINT('',(0.00385,-0.001,-0.0007));
#1251=CARTESIAN_POINT('',(0.00385,1.83697019872103E-20,-0.0007));
#1252=CARTESIAN_POINT('',(0.00415,1.83697019872103E-20,-0.0007));
#1253=CARTESIAN_POINT('',(0.00385,1.83697019872103E-20,0.));
#1254=CARTESIAN_POINT('',(0.,-0.00483303983765978,-0.0017));
#1255=CARTESIAN_POINT('',(0.,0.,0.));
#1256=CARTESIAN_POINT('',(-0.007,3.50352919286836E-19,0.004));
#1257=CARTESIAN_POINT('',(-0.007,3.50352919286836E-19,0.001));
#1258=CARTESIAN_POINT('',(-0.009,2.67024969579469E-19,0.001));
#1259=CARTESIAN_POINT('',(-0.007,-0.002,0.001));
#1260=CARTESIAN_POINT('',(-0.007,3.50352919286836E-19,0.001));
#1261=CARTESIAN_POINT('',(-0.007,0.002,0.001));
#1262=CARTESIAN_POINT('',(-0.007,0.002,0.004));
#1263=CARTESIAN_POINT('',(-0.007,0.002,0.));
#1264=CARTESIAN_POINT('',(-0.007,3.50352919286836E-19,0.));
#1265=CARTESIAN_POINT('',(-0.007,-0.002,0.));
#1266=CARTESIAN_POINT('',(-0.007,-0.002,0.004));
#1267=CARTESIAN_POINT('',(0.00699999999999991,-5.08899416976634E-19,0.004));
#1268=CARTESIAN_POINT('',(0.00699999999999991,-5.08899416976634E-19,0.001));
#1269=CARTESIAN_POINT('',(0.007,-0.002,0.001));
#1270=CARTESIAN_POINT('',(0.009,-5.84117964959067E-19,0.001));
#1271=CARTESIAN_POINT('',(0.007,-0.002,0.004));
#1272=CARTESIAN_POINT('',(0.007,-0.002,0.));
#1273=CARTESIAN_POINT('',(0.00699999999999991,-5.08899416976634E-19,0.));
#1274=CARTESIAN_POINT('',(0.007,0.002,0.));
#1275=CARTESIAN_POINT('',(0.007,0.002,0.004));
#1276=CARTESIAN_POINT('',(0.007,0.002,0.001));
#1277=CARTESIAN_POINT('',(0.00699999999999991,-5.08899416976634E-19,0.001));
#1278=CARTESIAN_POINT('',(-0.007,3.50352919286836E-19,0.004));
#1279=CARTESIAN_POINT('',(-0.007,3.50352919286836E-19,0.002));
#1280=CARTESIAN_POINT('',(-0.007,0.002,0.002));
#1281=CARTESIAN_POINT('',(-0.009,2.67024969579469E-19,0.002));
#1282=CARTESIAN_POINT('',(-0.007,3.50352919286836E-19,0.002));
#1283=CARTESIAN_POINT('',(-0.007,-0.002,0.002));
#1284=CARTESIAN_POINT('',(-0.007,-0.002,0.004));
#1285=CARTESIAN_POINT('',(-0.007,-0.002,0.004));
#1286=CARTESIAN_POINT('',(-0.007,3.50352919286836E-19,0.004));
#1287=CARTESIAN_POINT('',(-0.007,0.002,0.004));
#1288=CARTESIAN_POINT('',(-0.007,0.002,0.004));
#1289=CARTESIAN_POINT('',(0.00699999999999991,-5.08899416976634E-19,0.004));
#1290=CARTESIAN_POINT('',(0.007,-0.002,0.004));
#1291=CARTESIAN_POINT('',(0.007,-0.002,0.004));
#1292=CARTESIAN_POINT('',(0.007,-0.002,0.002));
#1293=CARTESIAN_POINT('',(0.00699999999999991,-5.08899416976634E-19,0.002));
#1294=CARTESIAN_POINT('',(0.009,-5.84117964959067E-19,0.002));
#1295=CARTESIAN_POINT('',(0.00699999999999991,-5.08899416976634E-19,0.002));
#1296=CARTESIAN_POINT('',(0.007,0.002,0.002));
#1297=CARTESIAN_POINT('',(0.007,0.002,0.004));
#1298=CARTESIAN_POINT('',(0.007,0.002,0.004));
#1299=CARTESIAN_POINT('',(0.00699999999999991,-5.08899416976634E-19,0.004));
#1300=CARTESIAN_POINT('',(-4.33680868994202E-17,0.002,0.004));
#1301=CARTESIAN_POINT('',(-4.33680868994202E-17,0.002,0.));
#1302=CARTESIAN_POINT('',(-0.008,0.002,0.001));
#1303=CARTESIAN_POINT('',(-0.009,0.002,0.001));
#1304=CARTESIAN_POINT('',(-0.009,0.002,0.002));
#1305=CARTESIAN_POINT('',(-0.009,0.002,0.002));
#1306=CARTESIAN_POINT('',(-0.008,0.002,0.002));
#1307=CARTESIAN_POINT('',(-4.33680868994202E-17,0.002,0.004));
#1308=CARTESIAN_POINT('',(0.008,0.002,0.002));
#1309=CARTESIAN_POINT('',(0.009,0.002,0.002));
#1310=CARTESIAN_POINT('',(0.009,0.002,0.002));
#1311=CARTESIAN_POINT('',(0.009,0.002,0.001));
#1312=CARTESIAN_POINT('',(0.008,0.002,0.001));
#1313=CARTESIAN_POINT('',(-0.007,2.30285565605048E-19,0.004));
#1314=CARTESIAN_POINT('',(-0.007,2.30285565605048E-19,0.004));
#1315=CARTESIAN_POINT('',(-0.0056,2.30285565605048E-19,0.004));
#1316=CARTESIAN_POINT('',(-0.007,2.30285565605048E-19,0.));
#1317=CARTESIAN_POINT('',(-0.0056,2.30285565605048E-19,0.));
#1318=CARTESIAN_POINT('',(0.00699999999999991,-9.17161733608777E-19,0.004));
#1319=CARTESIAN_POINT('',(0.00699999999999991,-9.17161733608777E-19,0.004));
#1320=CARTESIAN_POINT('',(0.00839999999999991,-9.17161733608777E-19,0.004));
#1321=CARTESIAN_POINT('',(0.00699999999999991,-9.17161733608777E-19,0.));
#1322=CARTESIAN_POINT('',(0.00839999999999991,-9.17161733608777E-19,0.));
#1323=CARTESIAN_POINT('',(-0.00385,4.59242549680257E-20,0.004));
#1324=CARTESIAN_POINT('',(-0.00385,4.59242549680257E-20,0.004));
#1325=CARTESIAN_POINT('',(-0.0031,4.59242549680257E-20,0.004));
#1326=CARTESIAN_POINT('',(-0.00385,4.59242549680257E-20,0.));
#1327=CARTESIAN_POINT('',(-0.0031,4.59242549680257E-20,0.));
#1328=CARTESIAN_POINT('',(-0.00128333333333333,4.59242549680257E-20,0.004));
#1329=CARTESIAN_POINT('',(-0.00128333333333333,4.59242549680257E-20,0.004));
#1330=CARTESIAN_POINT('',(-0.000533333333333332,4.59242549680257E-20,0.004));
#1331=CARTESIAN_POINT('',(-0.00128333333333333,4.59242549680257E-20,0.));
#1332=CARTESIAN_POINT('',(-0.000533333333333332,4.59242549680257E-20,0.));
#1333=CARTESIAN_POINT('',(0.00128333333333333,8.31739284420911E-19,0.004));
#1334=CARTESIAN_POINT('',(0.00128333333333333,8.31739284420911E-19,0.004));
#1335=CARTESIAN_POINT('',(0.00203333333333333,8.31739284420911E-19,0.004));
#1336=CARTESIAN_POINT('',(0.00128333333333333,8.31739284420911E-19,0.));
#1337=CARTESIAN_POINT('',(0.00203333333333333,8.31739284420911E-19,0.));
#1338=CARTESIAN_POINT('',(0.00385,4.59242549680257E-20,0.004));
#1339=CARTESIAN_POINT('',(0.00385,4.59242549680257E-20,0.004));
#1340=CARTESIAN_POINT('',(0.0046,4.59242549680257E-20,0.004));
#1341=CARTESIAN_POINT('',(0.00385,4.59242549680257E-20,0.));
#1342=CARTESIAN_POINT('',(0.0046,4.59242549680257E-20,0.));
#1343=CARTESIAN_POINT('',(-4.33680868994202E-17,-0.002,0.004));
#1344=CARTESIAN_POINT('',(-4.33680868994202E-17,-0.002,0.));
#1345=CARTESIAN_POINT('',(0.008,-0.002,0.001));
#1346=CARTESIAN_POINT('',(0.009,-0.002,0.001));
#1347=CARTESIAN_POINT('',(0.009,-0.002,0.002));
#1348=CARTESIAN_POINT('',(0.009,-0.002,0.002));
#1349=CARTESIAN_POINT('',(0.008,-0.002,0.002));
#1350=CARTESIAN_POINT('',(-4.33680868994202E-17,-0.002,0.004));
#1351=CARTESIAN_POINT('',(-0.008,-0.002,0.002));
#1352=CARTESIAN_POINT('',(-0.009,-0.002,0.002));
#1353=CARTESIAN_POINT('',(-0.009,-0.002,0.002));
#1354=CARTESIAN_POINT('',(-0.009,-0.002,0.001));
#1355=CARTESIAN_POINT('',(-0.008,-0.002,0.001));
#1356=CARTESIAN_POINT('',(0.,0.,0.004));
#1357=CARTESIAN_POINT('',(0.,0.,0.));
#1358=CARTESIAN_POINT('',(0.009,0.001,0.002));
#1359=CARTESIAN_POINT('',(0.009,0.001,0.001));
#1360=CARTESIAN_POINT('',(0.009,0.001,0.002));
#1361=CARTESIAN_POINT('',(0.009,-0.001,0.002));
#1362=CARTESIAN_POINT('',(0.009,-0.001,0.001));
#1363=CARTESIAN_POINT('',(0.,0.,0.002));
#1364=CARTESIAN_POINT('',(0.,0.,0.001));
#1365=CARTESIAN_POINT('',(-0.009,0.001,0.002));
#1366=CARTESIAN_POINT('',(-0.009,0.001,0.001));
#1367=CARTESIAN_POINT('',(-0.009,-0.001,0.001));
#1368=CARTESIAN_POINT('',(-0.009,-0.001,0.002));
#1369=CARTESIAN_POINT('',(-0.009,0.001,0.002));
#1370=CARTESIAN_POINT('',(0.,0.,0.002));
#1371=CARTESIAN_POINT('',(0.,0.,0.001));
#1372=CARTESIAN_POINT('',(0.,0.,0.002));
#1373=CARTESIAN_POINT('',(0.,0.,0.001));
#1374=CARTESIAN_POINT('',(0.,0.,0.002));
#1375=CARTESIAN_POINT('',(0.,0.,0.001));
#1376=CARTESIAN_POINT('',(0.,0.,0.));
#1377=CARTESIAN_POINT('',(-0.007,2.30285565605048E-19,0.004));
#1378=CARTESIAN_POINT('',(-0.007,2.30285565605048E-19,0.004));
#1379=CARTESIAN_POINT('',(-0.0056,2.30285565605048E-19,0.004));
#1380=CARTESIAN_POINT('',(-0.007,2.30285565605048E-19,0.));
#1381=CARTESIAN_POINT('',(-0.0056,2.30285565605048E-19,0.));
#1382=CARTESIAN_POINT('',(0.,0.,0.004));
#1383=CARTESIAN_POINT('',(0.,0.,0.));
#1384=CARTESIAN_POINT('',(0.,0.,0.));
#1385=CARTESIAN_POINT('',(0.00699999999999991,-9.17161733608777E-19,0.004));
#1386=CARTESIAN_POINT('',(0.00699999999999991,-9.17161733608777E-19,0.004));
#1387=CARTESIAN_POINT('',(0.00839999999999991,-9.17161733608777E-19,0.004));
#1388=CARTESIAN_POINT('',(0.00699999999999991,-9.17161733608777E-19,0.));
#1389=CARTESIAN_POINT('',(0.00839999999999991,-9.17161733608777E-19,0.));
#1390=CARTESIAN_POINT('',(0.,0.,0.004));
#1391=CARTESIAN_POINT('',(0.,0.,0.));
#1392=CARTESIAN_POINT('',(0.,0.,0.));
#1393=CARTESIAN_POINT('',(-0.00385,4.59242549680257E-20,0.004));
#1394=CARTESIAN_POINT('',(-0.00385,4.59242549680257E-20,0.004));
#1395=CARTESIAN_POINT('',(-0.0031,4.59242549680257E-20,0.004));
#1396=CARTESIAN_POINT('',(-0.00385,4.59242549680257E-20,0.));
#1397=CARTESIAN_POINT('',(-0.0031,4.59242549680257E-20,0.));
#1398=CARTESIAN_POINT('',(0.,0.,0.004));
#1399=CARTESIAN_POINT('',(0.,0.,0.));
#1400=CARTESIAN_POINT('',(-0.00385,1.83697019872103E-20,0.));
#1401=CARTESIAN_POINT('',(-0.00355,1.83697019872103E-20,0.));
#1402=CARTESIAN_POINT('',(-0.00385,-0.001,-0.0017));
#1403=CARTESIAN_POINT('',(-0.00385,-0.00483303983765978,-0.0017));
#1404=CARTESIAN_POINT('',(-0.00355,-0.00483303983765978,-0.0017));
#1405=CARTESIAN_POINT('',(-0.00385,-0.001,-0.0017));
#1406=CARTESIAN_POINT('',(-0.00355,-0.001,-0.0017));
#1407=CARTESIAN_POINT('',(-0.00385,-0.001,-0.0007));
#1408=CARTESIAN_POINT('',(-0.00385,1.83697019872103E-20,-0.0007));
#1409=CARTESIAN_POINT('',(-0.00355,1.83697019872103E-20,-0.0007));
#1410=CARTESIAN_POINT('',(-0.00385,1.83697019872103E-20,0.));
#1411=CARTESIAN_POINT('',(-0.0077,-0.00483303983765978,-0.0017));
#1412=CARTESIAN_POINT('',(0.,0.,0.));
#1413=CARTESIAN_POINT('',(-0.00128333333333333,4.59242549680257E-20,0.004));
#1414=CARTESIAN_POINT('',(-0.00128333333333333,4.59242549680257E-20,0.004));
#1415=CARTESIAN_POINT('',(-0.000533333333333332,4.59242549680257E-20,0.004));
#1416=CARTESIAN_POINT('',(-0.00128333333333333,4.59242549680257E-20,0.));
#1417=CARTESIAN_POINT('',(-0.000533333333333332,4.59242549680257E-20,0.));
#1418=CARTESIAN_POINT('',(0.,0.,0.004));
#1419=CARTESIAN_POINT('',(0.,0.,0.));
#1420=CARTESIAN_POINT('',(-0.00128333333333333,1.83697019872103E-20,0.));
#1421=CARTESIAN_POINT('',(-0.000983333333333332,1.83697019872103E-20,0.));
#1422=CARTESIAN_POINT('',(-0.00128333333333333,-0.001,-0.0017));
#1423=CARTESIAN_POINT('',(-0.00128333333333333,-0.00483303983765978,-0.0017));
#1424=CARTESIAN_POINT('',(-0.000983333333333332,-0.00483303983765978,-0.0017));
#1425=CARTESIAN_POINT('',(-0.00128333333333333,-0.001,-0.0017));
#1426=CARTESIAN_POINT('',(-0.000983333333333332,-0.001,-0.0017));
#1427=CARTESIAN_POINT('',(-0.00128333333333333,-0.001,-0.0007));
#1428=CARTESIAN_POINT('',(-0.00128333333333333,1.83697019872103E-20,-0.0007));
#1429=CARTESIAN_POINT('',(-0.000983333333333332,1.83697019872103E-20,-0.0007));
#1430=CARTESIAN_POINT('',(-0.00128333333333333,1.83697019872103E-20,0.));
#1431=CARTESIAN_POINT('',(-0.00513333333333333,-0.00483303983765978,-0.0017));
#1432=CARTESIAN_POINT('',(0.,0.,0.));
#1433=CARTESIAN_POINT('',(0.00128333333333333,8.31739284420911E-19,0.004));
#1434=CARTESIAN_POINT('',(0.00128333333333333,8.31739284420911E-19,0.004));
#1435=CARTESIAN_POINT('',(0.00203333333333333,8.31739284420911E-19,0.004));
#1436=CARTESIAN_POINT('',(0.00128333333333333,8.31739284420911E-19,0.));
#1437=CARTESIAN_POINT('',(0.00203333333333333,8.31739284420911E-19,0.));
#1438=CARTESIAN_POINT('',(0.,0.,0.004));
#1439=CARTESIAN_POINT('',(0.,0.,0.));
#1440=CARTESIAN_POINT('',(0.00128333333333333,1.83697019872103E-20,0.));
#1441=CARTESIAN_POINT('',(0.00158333333333333,1.83697019872103E-20,0.));
#1442=CARTESIAN_POINT('',(0.00128333333333333,-0.001,-0.0017));
#1443=CARTESIAN_POINT('',(0.00128333333333333,-0.00483303983765978,-0.0017));
#1444=CARTESIAN_POINT('',(0.00158333333333333,-0.00483303983765978,-0.0017));
#1445=CARTESIAN_POINT('',(0.00128333333333333,-0.001,-0.0017));
#1446=CARTESIAN_POINT('',(0.00158333333333333,-0.001,-0.0017));
#1447=CARTESIAN_POINT('',(0.00128333333333333,-0.001,-0.0007));
#1448=CARTESIAN_POINT('',(0.00128333333333333,1.83697019872103E-20,-0.0007));
#1449=CARTESIAN_POINT('',(0.00158333333333333,1.83697019872103E-20,-0.0007));
#1450=CARTESIAN_POINT('',(0.00128333333333333,1.83697019872103E-20,0.));
#1451=CARTESIAN_POINT('',(-0.00256666666666667,-0.00483303983765978,-0.0017));
#1452=MECHANICAL_DESIGN_GEOMETRIC_PRESENTATION_REPRESENTATION('',(#779),#1459);
#1453=MECHANICAL_DESIGN_GEOMETRIC_PRESENTATION_REPRESENTATION('',(#780),#1460);
#1454=MECHANICAL_DESIGN_GEOMETRIC_PRESENTATION_REPRESENTATION('',(#781),#1461);
#1455=MECHANICAL_DESIGN_GEOMETRIC_PRESENTATION_REPRESENTATION('',(#782),#1462);
#1456=MECHANICAL_DESIGN_GEOMETRIC_PRESENTATION_REPRESENTATION('',(#783),#1463);
#1457=MECHANICAL_DESIGN_GEOMETRIC_PRESENTATION_REPRESENTATION('',(#784),#1464);
#1458=MECHANICAL_DESIGN_GEOMETRIC_PRESENTATION_REPRESENTATION('',(#785),#1465);
#1459=(
GEOMETRIC_REPRESENTATION_CONTEXT(3)
GLOBAL_UNCERTAINTY_ASSIGNED_CONTEXT((#1466))
GLOBAL_UNIT_ASSIGNED_CONTEXT((#1487,#1480,#1473))
REPRESENTATION_CONTEXT('Part 7','TOP_LEVEL_ASSEMBLY_PART')
);
#1460=(
GEOMETRIC_REPRESENTATION_CONTEXT(3)
GLOBAL_UNCERTAINTY_ASSIGNED_CONTEXT((#1467))
GLOBAL_UNIT_ASSIGNED_CONTEXT((#1488,#1481,#1474))
REPRESENTATION_CONTEXT('Part 1','TOP_LEVEL_ASSEMBLY_PART')
);
#1461=(
GEOMETRIC_REPRESENTATION_CONTEXT(3)
GLOBAL_UNCERTAINTY_ASSIGNED_CONTEXT((#1468))
GLOBAL_UNIT_ASSIGNED_CONTEXT((#1489,#1482,#1475))
REPRESENTATION_CONTEXT('Part 2','TOP_LEVEL_ASSEMBLY_PART')
);
#1462=(
GEOMETRIC_REPRESENTATION_CONTEXT(3)
GLOBAL_UNCERTAINTY_ASSIGNED_CONTEXT((#1469))
GLOBAL_UNIT_ASSIGNED_CONTEXT((#1490,#1483,#1476))
REPRESENTATION_CONTEXT('Part 3','TOP_LEVEL_ASSEMBLY_PART')
);
#1463=(
GEOMETRIC_REPRESENTATION_CONTEXT(3)
GLOBAL_UNCERTAINTY_ASSIGNED_CONTEXT((#1470))
GLOBAL_UNIT_ASSIGNED_CONTEXT((#1491,#1484,#1477))
REPRESENTATION_CONTEXT('Part 4','TOP_LEVEL_ASSEMBLY_PART')
);
#1464=(
GEOMETRIC_REPRESENTATION_CONTEXT(3)
GLOBAL_UNCERTAINTY_ASSIGNED_CONTEXT((#1471))
GLOBAL_UNIT_ASSIGNED_CONTEXT((#1492,#1485,#1478))
REPRESENTATION_CONTEXT('Part 5','TOP_LEVEL_ASSEMBLY_PART')
);
#1465=(
GEOMETRIC_REPRESENTATION_CONTEXT(3)
GLOBAL_UNCERTAINTY_ASSIGNED_CONTEXT((#1472))
GLOBAL_UNIT_ASSIGNED_CONTEXT((#1493,#1486,#1479))
REPRESENTATION_CONTEXT('Part 6','TOP_LEVEL_ASSEMBLY_PART')
);
#1466=UNCERTAINTY_MEASURE_WITH_UNIT(LENGTH_MEASURE(1.E-08),#1487,'DISTANCE_ACCURACY_VALUE','Maximum Tolerance applied to model');
#1467=UNCERTAINTY_MEASURE_WITH_UNIT(LENGTH_MEASURE(1.E-08),#1488,'DISTANCE_ACCURACY_VALUE','Maximum Tolerance applied to model');
#1468=UNCERTAINTY_MEASURE_WITH_UNIT(LENGTH_MEASURE(1.E-08),#1489,'DISTANCE_ACCURACY_VALUE','Maximum Tolerance applied to model');
#1469=UNCERTAINTY_MEASURE_WITH_UNIT(LENGTH_MEASURE(1.E-08),#1490,'DISTANCE_ACCURACY_VALUE','Maximum Tolerance applied to model');
#1470=UNCERTAINTY_MEASURE_WITH_UNIT(LENGTH_MEASURE(1.E-08),#1491,'DISTANCE_ACCURACY_VALUE','Maximum Tolerance applied to model');
#1471=UNCERTAINTY_MEASURE_WITH_UNIT(LENGTH_MEASURE(1.E-08),#1492,'DISTANCE_ACCURACY_VALUE','Maximum Tolerance applied to model');
#1472=UNCERTAINTY_MEASURE_WITH_UNIT(LENGTH_MEASURE(1.E-08),#1493,'DISTANCE_ACCURACY_VALUE','Maximum Tolerance applied to model');
#1473=(
NAMED_UNIT(*)
SI_UNIT($,.STERADIAN.)
SOLID_ANGLE_UNIT()
);
#1474=(
NAMED_UNIT(*)
SI_UNIT($,.STERADIAN.)
SOLID_ANGLE_UNIT()
);
#1475=(
NAMED_UNIT(*)
SI_UNIT($,.STERADIAN.)
SOLID_ANGLE_UNIT()
);
#1476=(
NAMED_UNIT(*)
SI_UNIT($,.STERADIAN.)
SOLID_ANGLE_UNIT()
);
#1477=(
NAMED_UNIT(*)
SI_UNIT($,.STERADIAN.)
SOLID_ANGLE_UNIT()
);
#1478=(
NAMED_UNIT(*)
SI_UNIT($,.STERADIAN.)
SOLID_ANGLE_UNIT()
);
#1479=(
NAMED_UNIT(*)
SI_UNIT($,.STERADIAN.)
SOLID_ANGLE_UNIT()
);
#1480=(
NAMED_UNIT(*)
PLANE_ANGLE_UNIT()
SI_UNIT($,.RADIAN.)
);
#1481=(
NAMED_UNIT(*)
PLANE_ANGLE_UNIT()
SI_UNIT($,.RADIAN.)
);
#1482=(
NAMED_UNIT(*)
PLANE_ANGLE_UNIT()
SI_UNIT($,.RADIAN.)
);
#1483=(
NAMED_UNIT(*)
PLANE_ANGLE_UNIT()
SI_UNIT($,.RADIAN.)
);
#1484=(
NAMED_UNIT(*)
PLANE_ANGLE_UNIT()
SI_UNIT($,.RADIAN.)
);
#1485=(
NAMED_UNIT(*)
PLANE_ANGLE_UNIT()
SI_UNIT($,.RADIAN.)
);
#1486=(
NAMED_UNIT(*)
PLANE_ANGLE_UNIT()
SI_UNIT($,.RADIAN.)
);
#1487=(
LENGTH_UNIT()
NAMED_UNIT(*)
SI_UNIT($,.METRE.)
);
#1488=(
LENGTH_UNIT()
NAMED_UNIT(*)
SI_UNIT($,.METRE.)
);
#1489=(
LENGTH_UNIT()
NAMED_UNIT(*)
SI_UNIT($,.METRE.)
);
#1490=(
LENGTH_UNIT()
NAMED_UNIT(*)
SI_UNIT($,.METRE.)
);
#1491=(
LENGTH_UNIT()
NAMED_UNIT(*)
SI_UNIT($,.METRE.)
);
#1492=(
LENGTH_UNIT()
NAMED_UNIT(*)
SI_UNIT($,.METRE.)
);
#1493=(
LENGTH_UNIT()
NAMED_UNIT(*)
SI_UNIT($,.METRE.)
);
#1494=PRODUCT_DEFINITION_SHAPE('','',#1501);
#1495=PRODUCT_DEFINITION_SHAPE('','',#1502);
#1496=PRODUCT_DEFINITION_SHAPE('','',#1503);
#1497=PRODUCT_DEFINITION_SHAPE('','',#1504);
#1498=PRODUCT_DEFINITION_SHAPE('','',#1505);
#1499=PRODUCT_DEFINITION_SHAPE('','',#1506);
#1500=PRODUCT_DEFINITION_SHAPE('','',#1507);
#1501=PRODUCT_DEFINITION('','',#1515,#1508);
#1502=PRODUCT_DEFINITION('','',#1516,#1509);
#1503=PRODUCT_DEFINITION('','',#1517,#1510);
#1504=PRODUCT_DEFINITION('','',#1518,#1511);
#1505=PRODUCT_DEFINITION('','',#1519,#1512);
#1506=PRODUCT_DEFINITION('','',#1520,#1513);
#1507=PRODUCT_DEFINITION('','',#1521,#1514);
#1508=PRODUCT_DEFINITION_CONTEXT('',#1557,'design');
#1509=PRODUCT_DEFINITION_CONTEXT('',#1558,'design');
#1510=PRODUCT_DEFINITION_CONTEXT('',#1559,'design');
#1511=PRODUCT_DEFINITION_CONTEXT('',#1560,'design');
#1512=PRODUCT_DEFINITION_CONTEXT('',#1561,'design');
#1513=PRODUCT_DEFINITION_CONTEXT('',#1562,'design');
#1514=PRODUCT_DEFINITION_CONTEXT('',#1563,'design');
#1515=PRODUCT_DEFINITION_FORMATION_WITH_SPECIFIED_SOURCE('','',#1529,.NOT_KNOWN.);
#1516=PRODUCT_DEFINITION_FORMATION_WITH_SPECIFIED_SOURCE('','',#1530,.NOT_KNOWN.);
#1517=PRODUCT_DEFINITION_FORMATION_WITH_SPECIFIED_SOURCE('','',#1531,.NOT_KNOWN.);
#1518=PRODUCT_DEFINITION_FORMATION_WITH_SPECIFIED_SOURCE('','',#1532,.NOT_KNOWN.);
#1519=PRODUCT_DEFINITION_FORMATION_WITH_SPECIFIED_SOURCE('','',#1533,.NOT_KNOWN.);
#1520=PRODUCT_DEFINITION_FORMATION_WITH_SPECIFIED_SOURCE('','',#1534,.NOT_KNOWN.);
#1521=PRODUCT_DEFINITION_FORMATION_WITH_SPECIFIED_SOURCE('','',#1535,.NOT_KNOWN.);
#1522=PRODUCT_RELATED_PRODUCT_CATEGORY('','',(#1529));
#1523=PRODUCT_RELATED_PRODUCT_CATEGORY('','',(#1530));
#1524=PRODUCT_RELATED_PRODUCT_CATEGORY('','',(#1531));
#1525=PRODUCT_RELATED_PRODUCT_CATEGORY('','',(#1532));
#1526=PRODUCT_RELATED_PRODUCT_CATEGORY('','',(#1533));
#1527=PRODUCT_RELATED_PRODUCT_CATEGORY('','',(#1534));
#1528=PRODUCT_RELATED_PRODUCT_CATEGORY('','',(#1535));
#1529=PRODUCT('Part 7','Part 7','Part 7',(#1543));
#1530=PRODUCT('Part 1','Part 1','Part 1',(#1544));
#1531=PRODUCT('Part 2','Part 2','Part 2',(#1545));
#1532=PRODUCT('Part 3','Part 3','Part 3',(#1546));
#1533=PRODUCT('Part 4','Part 4','Part 4',(#1547));
#1534=PRODUCT('Part 5','Part 5','Part 5',(#1548));
#1535=PRODUCT('Part 6','Part 6','Part 6',(#1549));
#1536=PRODUCT_CATEGORY('','');
#1537=PRODUCT_CATEGORY('','');
#1538=PRODUCT_CATEGORY('','');
#1539=PRODUCT_CATEGORY('','');
#1540=PRODUCT_CATEGORY('','');
#1541=PRODUCT_CATEGORY('','');
#1542=PRODUCT_CATEGORY('','');
#1543=PRODUCT_CONTEXT('',#1557,'mechanical');
#1544=PRODUCT_CONTEXT('',#1558,'mechanical');
#1545=PRODUCT_CONTEXT('',#1559,'mechanical');
#1546=PRODUCT_CONTEXT('',#1560,'mechanical');
#1547=PRODUCT_CONTEXT('',#1561,'mechanical');
#1548=PRODUCT_CONTEXT('',#1562,'mechanical');
#1549=PRODUCT_CONTEXT('',#1563,'mechanical');
#1550=APPLICATION_PROTOCOL_DEFINITION('international standard','ap242_managed_model_based_3d_engineering',2020,#1557);
#1551=APPLICATION_PROTOCOL_DEFINITION('international standard','ap242_managed_model_based_3d_engineering',2020,#1558);
#1552=APPLICATION_PROTOCOL_DEFINITION('international standard','ap242_managed_model_based_3d_engineering',2020,#1559);
#1553=APPLICATION_PROTOCOL_DEFINITION('international standard','ap242_managed_model_based_3d_engineering',2020,#1560);
#1554=APPLICATION_PROTOCOL_DEFINITION('international standard','ap242_managed_model_based_3d_engineering',2020,#1561);
#1555=APPLICATION_PROTOCOL_DEFINITION('international standard','ap242_managed_model_based_3d_engineering',2020,#1562);
#1556=APPLICATION_PROTOCOL_DEFINITION('international standard','ap242_managed_model_based_3d_engineering',2020,#1563);
#1557=APPLICATION_CONTEXT('managed model based 3d engineering');
#1558=APPLICATION_CONTEXT('managed model based 3d engineering');
#1559=APPLICATION_CONTEXT('managed model based 3d engineering');
#1560=APPLICATION_CONTEXT('managed model based 3d engineering');
#1561=APPLICATION_CONTEXT('managed model based 3d engineering');
#1562=APPLICATION_CONTEXT('managed model based 3d engineering');
#1563=APPLICATION_CONTEXT('managed model based 3d engineering');
ENDSEC;
END-ISO-10303-21;
